<svg xmlns="http://www.w3.org/2000/svg" width="134" height="97" viewBox="0 0 134 97"><defs><style>.a{fill:#fc8813;}.b{fill:none;}</style></defs><g transform="translate(-614 -1245)"><g transform="translate(693.854 1103.422)"><g transform="translate(-47.854 153.578)"><path class="a" d="M32.128,82.813a9.273,9.273,0,0,0-4.955-8.2,8.9,8.9,0,0,1-1.733,1.86A6.853,6.853,0,0,1,29.7,82.813v5.81H8.923v-5.81a6.853,6.853,0,0,1,4.265-6.336,8.917,8.917,0,0,1-1.733-1.86,9.273,9.273,0,0,0-4.955,8.2v8.233H32.127V82.813Z" transform="translate(-6.5 -18.505)"/><path class="a" d="M20.142,72.606h.789a7.348,7.348,0,0,0,7.339-7.339V62.72a7.348,7.348,0,0,0-7.339-7.339h-.789A7.347,7.347,0,0,0,12.8,62.72v2.546A7.348,7.348,0,0,0,20.142,72.606Zm-4.916-9.885A4.922,4.922,0,0,1,20.142,57.8h.789a4.922,4.922,0,0,1,4.917,4.917v2.546a4.922,4.922,0,0,1-4.917,4.917h-.789a4.922,4.922,0,0,1-4.916-4.917Z" transform="translate(-7.723 -14.774)"/><path class="a" d="M73.375,80.344a6.853,6.853,0,0,1,4.265,6.336v2.693H56.859V86.68a6.852,6.852,0,0,1,4.265-6.336,8.938,8.938,0,0,1-1.733-1.86,9.273,9.273,0,0,0-4.955,8.2V91.8H80.063V86.68a9.273,9.273,0,0,0-4.955-8.2A8.913,8.913,0,0,1,73.375,80.344Z" transform="translate(-15.799 -19.256)"/><path class="a" d="M60.739,66.587v2.546a7.347,7.347,0,0,0,7.339,7.339h.789a7.348,7.348,0,0,0,7.339-7.339V66.587a7.348,7.348,0,0,0-7.339-7.339h-.789A7.348,7.348,0,0,0,60.739,66.587Zm2.423,0a4.922,4.922,0,0,1,4.916-4.917h.789a4.922,4.922,0,0,1,4.917,4.917v2.546a4.922,4.922,0,0,1-4.917,4.917h-.789a4.922,4.922,0,0,1-4.916-4.917V66.587Z" transform="translate(-17.022 -15.524)"/><path class="a" d="M79.826,18.167H47.589A4,4,0,0,0,43.6,22.16v23.1a4,4,0,0,0,3.993,3.993H72.621l7.666,7.666a2.062,2.062,0,0,0,1.46.606,2.073,2.073,0,0,0,2.072-2.071v-33.3A4,4,0,0,0,79.826,18.167Zm1.755,36.884-7.429-7.429a2.056,2.056,0,0,0-1.463-.606h-25.1a1.757,1.757,0,0,1-1.755-1.755v-23.1A1.757,1.757,0,0,1,47.589,20.4H79.826a1.757,1.757,0,0,1,1.755,1.755Z" transform="translate(-13.696 -7.554)"/><path class="a" d="M47.291,13.815V8.99A3.994,3.994,0,0,0,43.3,5H11.063a3.994,3.994,0,0,0-3.99,3.99v33.3a2.072,2.072,0,0,0,3.535,1.462l7.667-7.667H32.342V33.846H18.2a2.057,2.057,0,0,0-1.462.611L9.31,41.884V8.99a1.755,1.755,0,0,1,1.753-1.753H43.3A1.755,1.755,0,0,1,45.054,8.99v4.826Z" transform="translate(-6.611 -5)"/><circle class="a" cx="2.316" cy="2.316" r="2.316" transform="translate(38.682 24.17)"/><circle class="a" cx="2.316" cy="2.316" r="2.316" transform="translate(47.695 24.17)"/><circle class="a" cx="2.316" cy="2.316" r="2.316" transform="translate(56.708 24.17)"/></g></g><rect class="b" width="134" height="97" transform="translate(614 1245)"/></g></svg>