<?xml version="1.0" encoding="iso-8859-1"?>
<!-- Generator: Adobe Illustrator 19.0.0, SVG Export Plug-In . SVG Version: 6.00 Build 0)  -->
<svg version="1.1" id="Capa_1" xmlns="http://www.w3.org/2000/svg" xmlns:xlink="http://www.w3.org/1999/xlink" x="0px" y="0px"
	 viewBox="0 0 512.001 512.001" style="enable-background:new 0 0 512.001 512.001;" fill="#aa0095" xml:space="preserve">
<g>
	<g>
		<path d="M496.999,114.962c-20.428,0-40.05-4.446-57.812-12.513c-28.361,59.172-84.564,102.558-151.533,113.088
			c0.202,1.451,0.315,2.93,0.315,4.436c0,7.185-2.384,13.825-6.402,19.169c14.773,8.765,24.702,24.87,24.702,43.258
			c0,27.718-22.551,50.269-50.27,50.269c-27.719,0-50.27-22.551-50.27-50.269c0-18.388,9.93-34.493,24.702-43.258
			c-4.017-5.344-6.402-11.984-6.402-19.169c0-1.506,0.112-2.985,0.315-4.436c-66.969-10.53-123.172-53.916-151.533-113.088
			c-17.761,8.067-37.383,12.513-57.811,12.513H0V256c0,68.38,26.629,132.667,74.981,181.019C123.334,485.372,187.62,512,256,512
			s132.667-26.628,181.019-74.98c48.352-48.352,74.981-112.639,74.981-181.019V114.962H496.999z"/>
	</g>
</g>
<g>
	<g>
		<path d="M361.727,11.137l-2.968-11.136H153.24l-2.969,11.135c-8.322,31.209-26.897,57.61-51.513,75.979
			c27.377,59.458,87.503,100.846,157.127,100.893c0.039,0,0.077-0.003,0.115-0.003s0.077,0.003,0.115,0.003
			c69.624-0.046,129.75-41.435,157.127-100.892C388.625,68.746,370.051,42.347,361.727,11.137z"/>
	</g>
</g>
<g>
</g>
<g>
</g>
<g>
</g>
<g>
</g>
<g>
</g>
<g>
</g>
<g>
</g>
<g>
</g>
<g>
</g>
<g>
</g>
<g>
</g>
<g>
</g>
<g>
</g>
<g>
</g>
<g>
</g>
</svg>
