<svg xmlns="http://www.w3.org/2000/svg" width="79" height="79" viewBox="0 0 79 79"><defs><style>.a{fill:#fc8813;}.b{fill:#fff;}</style></defs><g transform="translate(-137 -688)"><circle class="a" cx="39.5" cy="39.5" r="39.5" transform="translate(137 688)"/><g transform="translate(151 702)"><path class="b" d="M14.083,49.245a.695.695,0,0,1-.493-1.188L18.5,43.147a.695.695,0,0,1,.979.979l-4.911,4.911a.7.7,0,0,1-.486.208Z" transform="translate(-13.384 -22.469)"/><path class="b" d="M16.9,52.015a.695.695,0,0,1-.493-1.188l4.918-4.918a.7.7,0,1,1,.986.986L17.4,51.807A.7.7,0,0,1,16.9,52.015Z" transform="translate(-14.245 -23.301)"/><path class="b" d="M19.693,54.855a.695.695,0,0,1-.493-1.188l4.911-4.911a.695.695,0,0,1,.979.979l-4.911,4.911a.7.7,0,0,1-.486.208Z" transform="translate(-15.098 -24.182)"/><path class="b" d="M28.55,64.358a.7.7,0,0,1-.493-.2l-4.911-4.911a.695.695,0,0,1,.979-.979l4.911,4.911a.695.695,0,0,1-.486,1.181Z" transform="translate(-16.315 -27.087)"/><path class="b" d="M31.337,61.535a.7.7,0,0,1-.493-.2l-4.918-4.918a.695.695,0,0,1,.979-.979l4.911,4.911a.695.695,0,0,1-.493,1.188Z" transform="translate(-17.164 -26.222)"/><path class="b" d="M34.16,58.708a.7.7,0,0,1-.493-.2L28.757,53.6a.695.695,0,0,1,.979-.979l4.911,4.911a.695.695,0,0,1-.493,1.188Z" transform="translate(-18.028 -25.361)"/><path class="b" d="M39.233,54.355a.695.695,0,0,1-.493-1.188l4.911-4.911a.695.695,0,0,1,.979.979l-4.911,4.911a.7.7,0,0,1-.486.208Z" transform="translate(-21.066 -24.029)"/><path class="b" d="M36.4,51.535a.695.695,0,0,1-.493-1.188l4.911-4.911a.695.695,0,0,1,.979.979l-4.9,4.918A.7.7,0,0,1,36.4,51.535Z" transform="translate(-20.201 -23.168)"/><path class="b" d="M33.583,48.7a.695.695,0,0,1-.493-1.188L38,42.607a.695.695,0,0,1,.979.979L34.069,48.5a.7.7,0,0,1-.486.208Z" transform="translate(-19.34 -22.304)"/><path class="b" d="M34.66,39.248a.7.7,0,0,1-.493-.2l-4.911-4.911a.695.695,0,0,1,.979-.979l4.911,4.911a.695.695,0,0,1-.486,1.181Z" transform="translate(-18.181 -19.418)"/><path class="b" d="M31.822,42.017a.7.7,0,0,1-.493-.2L26.419,36.9a.7.7,0,1,1,.979-.993l4.918,4.918a.695.695,0,0,1-.493,1.188Z" transform="translate(-17.302 -20.249)"/><path class="b" d="M29.01,44.858a.7.7,0,0,1-.493-.2l-4.911-4.911a.695.695,0,0,1,.979-.979L29.5,43.677A.695.695,0,0,1,29,44.865Z" transform="translate(-16.455 -21.131)"/><path class="b" d="M33.583,29.7a.695.695,0,0,1-.493-1.188L38,23.607a.695.695,0,0,1,.979.979L34.069,29.5A.7.7,0,0,1,33.583,29.7Z" transform="translate(-19.34 -16.501)"/><path class="b" d="M36.4,32.535a.695.695,0,0,1-.493-1.188l4.911-4.911a.695.695,0,0,1,.979.979l-4.9,4.918A.7.7,0,0,1,36.4,32.535Z" transform="translate(-20.201 -17.365)"/><path class="b" d="M39.233,35.355a.695.695,0,0,1-.493-1.188l4.911-4.911a.695.695,0,0,1,.979.979l-4.911,4.911a.7.7,0,0,1-.486.208Z" transform="translate(-21.066 -18.226)"/><path class="b" d="M48.01,44.858a.7.7,0,0,1-.493-.2l-4.911-4.911a.695.695,0,0,1,.979-.979L48.5,43.677A.695.695,0,0,1,48,44.865Z" transform="translate(-22.258 -21.131)"/><path class="b" d="M50.822,42.017a.7.7,0,0,1-.493-.2L45.419,36.9a.7.7,0,0,1,.979-.993l4.918,4.918a.695.695,0,0,1-.493,1.188Z" transform="translate(-23.105 -20.249)"/><path class="b" d="M53.66,39.248a.7.7,0,0,1-.493-.2l-4.911-4.911a.695.695,0,0,1,.979-.979l4.911,4.911a.695.695,0,0,1-.486,1.181Z" transform="translate(-23.984 -19.418)"/><path class="b" d="M58.693,34.855a.695.695,0,0,1-.493-1.188l4.911-4.911a.695.695,0,0,1,.979.979l-4.911,4.911a.7.7,0,0,1-.486.208Z" transform="translate(-27.009 -18.074)"/><path class="b" d="M55.9,32.015a.695.695,0,0,1-.493-1.188l4.918-4.918a.7.7,0,0,1,.986.986L56.4,31.807A.7.7,0,0,1,55.9,32.015Z" transform="translate(-26.157 -17.193)"/><path class="b" d="M53.083,29.245a.695.695,0,0,1-.493-1.188L57.5,23.147a.695.695,0,0,1,.979.979l-4.911,4.911A.7.7,0,0,1,53.083,29.245Z" transform="translate(-25.296 -16.36)"/><path class="b" d="M54.16,19.708a.7.7,0,0,1-.493-.2L48.757,14.6a.695.695,0,0,1,.979-.979l4.911,4.911a.695.695,0,0,1-.493,1.188Z" transform="translate(-24.137 -13.45)"/><path class="b" d="M51.337,22.535a.7.7,0,0,1-.493-.2l-4.918-4.918a.695.695,0,0,1,.979-.979l4.911,4.911a.695.695,0,0,1-.493,1.188Z" transform="translate(-23.272 -14.311)"/><path class="b" d="M48.55,25.358a.7.7,0,0,1-.493-.2l-4.911-4.911a.695.695,0,0,1,.979-.979l4.911,4.911a.695.695,0,0,1-.486,1.181Z" transform="translate(-22.423 -15.175)"/><path class="b" d="M33.583,68.7a.695.695,0,0,1-.493-1.188L38,62.607a.695.695,0,0,1,.979.979L34.069,68.5A.7.7,0,0,1,33.583,68.7Z" transform="translate(-19.34 -28.412)"/><path class="b" d="M36.4,71.535a.695.695,0,0,1-.493-1.188l4.911-4.911a.695.695,0,0,1,.979.979l-4.9,4.918a.7.7,0,0,1-.493.2Z" transform="translate(-20.201 -29.277)"/><path class="b" d="M39.233,74.355a.695.695,0,0,1-.493-1.188l4.911-4.911a.695.695,0,0,1,.979.979l-4.911,4.911A.7.7,0,0,1,39.233,74.355Z" transform="translate(-21.066 -30.138)"/><path class="b" d="M48.01,83.858a.7.7,0,0,1-.493-.2l-4.911-4.911a.695.695,0,0,1,.979-.979L48.5,82.677A.695.695,0,0,1,48,83.865Z" transform="translate(-22.258 -33.043)"/><path class="b" d="M50.822,81.017a.7.7,0,0,1-.493-.2L45.419,75.9a.7.7,0,1,1,.979-.993l4.918,4.918a.695.695,0,0,1-.493,1.188Z" transform="translate(-23.105 -32.16)"/><path class="b" d="M53.66,78.248a.7.7,0,0,1-.493-.2l-4.911-4.911a.695.695,0,0,1,.979-.979l4.911,4.911a.695.695,0,0,1-.486,1.181Z" transform="translate(-23.984 -31.329)"/><path class="b" d="M58.693,73.855a.695.695,0,0,1-.493-1.188l4.911-4.911a.695.695,0,0,1,.979.979l-4.911,4.911a.7.7,0,0,1-.486.208Z" transform="translate(-27.009 -29.985)"/><path class="b" d="M55.9,71.015a.695.695,0,0,1-.493-1.188l4.918-4.918a.7.7,0,0,1,.986.986L56.4,70.807A.7.7,0,0,1,55.9,71.015Z" transform="translate(-26.157 -29.105)"/><path class="b" d="M53.083,68.245a.695.695,0,0,1-.493-1.188L57.5,62.147a.695.695,0,0,1,.979.979l-4.911,4.911a.7.7,0,0,1-.486.208Z" transform="translate(-25.296 -28.272)"/><path class="b" d="M54.16,58.708a.7.7,0,0,1-.493-.2L48.757,53.6a.695.695,0,0,1,.979-.979l4.911,4.911a.695.695,0,0,1-.493,1.188Z" transform="translate(-24.137 -25.361)"/><path class="b" d="M51.337,61.535a.7.7,0,0,1-.493-.2l-4.918-4.918a.695.695,0,0,1,.979-.979l4.911,4.911a.695.695,0,0,1-.493,1.188Z" transform="translate(-23.272 -26.222)"/><path class="b" d="M48.55,64.358a.7.7,0,0,1-.493-.2l-4.911-4.911a.695.695,0,0,1,.979-.979l4.911,4.911a.695.695,0,0,1-.486,1.181Z" transform="translate(-22.423 -27.087)"/><path class="b" d="M53.083,49.245a.695.695,0,0,1-.493-1.188L57.5,43.147a.695.695,0,0,1,.979.979l-4.911,4.911a.7.7,0,0,1-.486.208Z" transform="translate(-25.296 -22.469)"/><path class="b" d="M55.9,52.015a.695.695,0,0,1-.493-1.188l4.918-4.918a.7.7,0,0,1,.986.986L56.4,51.807A.7.7,0,0,1,55.9,52.015Z" transform="translate(-26.157 -23.301)"/><path class="b" d="M58.693,54.855a.695.695,0,0,1-.493-1.188l4.911-4.911a.695.695,0,0,1,.979.979l-4.911,4.911A.7.7,0,0,1,58.693,54.855Z" transform="translate(-27.009 -24.182)"/><path class="b" d="M67.55,64.358a.7.7,0,0,1-.493-.2l-4.911-4.911a.695.695,0,0,1,.979-.979l4.911,4.911a.695.695,0,0,1-.486,1.181Z" transform="translate(-28.226 -27.087)"/><path class="b" d="M70.337,61.535a.7.7,0,0,1-.493-.2l-4.918-4.918a.695.695,0,0,1,.979-.979l4.911,4.911a.695.695,0,0,1-.493,1.188Z" transform="translate(-29.076 -26.222)"/><path class="b" d="M73.16,58.708a.7.7,0,0,1-.493-.2L67.757,53.6a.695.695,0,0,1,.979-.979l4.911,4.911a.695.695,0,0,1-.493,1.188Z" transform="translate(-29.94 -25.361)"/><path class="b" d="M78.233,54.355a.695.695,0,0,1-.493-1.188l4.911-4.911a.695.695,0,0,1,.979.979l-4.911,4.911A.7.7,0,0,1,78.233,54.355Z" transform="translate(-32.977 -24.029)"/><path class="b" d="M75.4,51.535a.695.695,0,0,1-.493-1.188l4.911-4.911a.695.695,0,0,1,.979.979l-4.9,4.918A.7.7,0,0,1,75.4,51.535Z" transform="translate(-32.113 -23.168)"/><path class="b" d="M72.583,48.7a.695.695,0,0,1-.493-1.188L77,42.607a.695.695,0,0,1,.979.979L73.069,48.5A.7.7,0,0,1,72.583,48.7Z" transform="translate(-31.252 -22.304)"/><path class="b" d="M73.66,39.248a.7.7,0,0,1-.493-.2l-4.911-4.911a.695.695,0,0,1,.979-.979l4.911,4.911a.695.695,0,0,1-.486,1.181Z" transform="translate(-30.093 -19.418)"/><path class="b" d="M70.822,42.017a.7.7,0,0,1-.493-.2L65.419,36.9a.7.7,0,0,1,.979-.993l4.918,4.918a.695.695,0,0,1-.493,1.188Z" transform="translate(-29.213 -20.249)"/><path class="b" d="M68.01,44.858a.7.7,0,0,1-.493-.2l-4.911-4.911a.695.695,0,0,1,.979-.979L68.5,43.677A.695.695,0,0,1,68,44.865Z" transform="translate(-28.367 -21.131)"/></g></g></svg>