<svg xmlns="http://www.w3.org/2000/svg" width="134" height="97" viewBox="0 0 134 97"><defs><style>.a{fill:none;}.b{fill:#fc8813;}</style></defs><g transform="translate(-956 -1245)"><rect class="a" width="134" height="97" transform="translate(956 1245)"/><g transform="translate(996.112 1257.971)"><g transform="translate(1.515 0.853)"><path class="b" d="M36.638,3.814c.966.519,1.914,1.01,2.849,1.494,7.2,3.725,13.669,7.073,13.669,15.345v13.2a.725.725,0,0,1-.725.725H2.24a.725.725,0,0,1-.725-.725v-13.2c0-8.515,5.12-11.093,13.831-15.479.95-.478,1.939-.976,2.743-1.388v0a.726.726,0,0,1,.846.134A13.348,13.348,0,0,0,22.893,6.4a11.966,11.966,0,0,0,4.443.854A11.965,11.965,0,0,0,31.778,6.4a13.357,13.357,0,0,0,3.99-2.509h0a.726.726,0,0,1,.872-.075Zm2.186,2.78C38,6.169,37.171,5.739,36.352,5.3a14.7,14.7,0,0,1-4.041,2.44,13.4,13.4,0,0,1-4.975.961,13.4,13.4,0,0,1-4.975-.961A14.71,14.71,0,0,1,18.31,5.3c-.893.456-1.616.82-2.312,1.171C7.789,10.6,2.965,13.028,2.965,20.653V33.125h48.74V20.653c0-7.394-6.1-10.549-12.881-14.059Z" transform="translate(-1.515 35.055)"/><path class="b" d="M3.718,4.656a.725.725,0,0,0-1.451,0V30.98a.725.725,0,1,0,1.451,0Z" transform="translate(7.964 37.925)"/><path class="b" d="M5.9,4.656a.725.725,0,0,0-1.451,0V30.98a.725.725,0,1,0,1.451,0Z" transform="translate(35.506 37.925)"/><path class="b" d="M30.466,3.2c0,.1.007.215.01.339,0,.215.007.349.007.4a17.809,17.809,0,0,1-4.078,11.539,13.091,13.091,0,0,1-9.97,4.844,13.091,13.091,0,0,1-9.97-4.844A17.809,17.809,0,0,1,2.387,3.936c0-.049,0-.183.007-.4,0-.147.007-.278.012-.4l.722.028L2.4,3.141a.725.725,0,0,1,.725-.7H29.742a.725.725,0,0,1,.725.725c0,.01,0,.019,0,.029Zm-1.434.736V3.9H3.837v.04a16.359,16.359,0,0,0,3.727,10.6,11.661,11.661,0,0,0,8.871,4.328,11.661,11.661,0,0,0,8.871-4.328,16.358,16.358,0,0,0,3.727-10.6Z" transform="translate(9.472 19.205)"/><g transform="translate(7.824)"><path class="b" d="M4.714,2.137H35.633a2.629,2.629,0,0,1,2.624,2.624v.4a2.629,2.629,0,0,1-2.624,2.624H4.714A2.629,2.629,0,0,1,2.09,5.157v-.4A2.629,2.629,0,0,1,4.714,2.137ZM35.633,3.588H4.714A1.178,1.178,0,0,0,3.541,4.761v.4A1.178,1.178,0,0,0,4.714,6.33H35.633a1.178,1.178,0,0,0,1.173-1.173v-.4a1.178,1.178,0,0,0-1.173-1.173Z" transform="translate(-2.09 15.32)"/><path class="b" d="M7.785.853H9.836a1.577,1.577,0,0,1,1.286.675,3.344,3.344,0,0,1,.57,1.414l2.924,15.964-.711.13.713-.131a.725.725,0,0,1-.583.844.733.733,0,0,1-.14.012H3.717a.726.726,0,0,1-.7-.914L5.93,2.941A3.344,3.344,0,0,1,6.5,1.528,1.577,1.577,0,0,1,7.785.853ZM9.836,2.3H7.785c-.04,0-.087.039-.136.1a1.936,1.936,0,0,0-.3.8L4.585,18.311h8.451L10.269,3.2a1.935,1.935,0,0,0-.3-.8c-.048-.063-.1-.1-.136-.1Z" transform="translate(9.273 -0.853)"/><g transform="translate(6.887 9.811)"><path class="b" d="M5.346,6.712a.725.725,0,1,0,1.213-.793L3.927,1.9A.725.725,0,0,0,2.715,2.7Z" transform="translate(-2.596 -1.575)"/><path class="b" d="M4.061,5.919a.725.725,0,1,0,1.213.793L7.905,2.7A.725.725,0,1,0,6.693,1.9Z" transform="translate(14.369 -1.575)"/></g><path class="b" d="M2.212,16.467a.725.725,0,0,0,1.451,0,13.641,13.641,0,0,1,3.52-9.115,15.178,15.178,0,0,1,8.955-4.841.723.723,0,0,0-.227-1.428A16.63,16.63,0,0,0,6.1,6.389,15.08,15.08,0,0,0,2.212,16.467ZM21.085,1.041a.724.724,0,1,0-.2,1.434,15.2,15.2,0,0,1,9.127,4.786,13.646,13.646,0,0,1,3.6,9.207.725.725,0,1,0,1.451,0A15.089,15.089,0,0,0,31.085,6.286a16.654,16.654,0,0,0-10-5.245Z" transform="translate(-0.556 1.427)"/></g></g></g></g></svg>