<svg xmlns="http://www.w3.org/2000/svg" width="31" height="31" viewBox="0 0 31 31"><defs><style>.a{fill:#fff;}</style></defs><path class="a" d="M33.789,4.5H6.211A1.712,1.712,0,0,0,4.5,6.211V33.789A1.712,1.712,0,0,0,6.211,35.5H20V23.229H16.295V18.708H20V15.366c0-4,2.777-6.184,6.353-6.184,1.711,0,3.552.129,3.98.186V13.55h-2.85c-1.946,0-2.317.92-2.317,2.277v2.882H29.8L29.2,23.229H25.167V35.5h8.622A1.712,1.712,0,0,0,35.5,33.789V6.211A1.712,1.712,0,0,0,33.789,4.5Z" transform="translate(-4.5 -4.5)"/></svg>