<svg xmlns="http://www.w3.org/2000/svg" width="79" height="79" viewBox="0 0 79 79"><defs><style>.a{fill:#fc8813;}.b{fill:#fff;stroke:#fff;stroke-width:0.7px;}</style></defs><g transform="translate(-137 -932)"><circle class="a" cx="39.5" cy="39.5" r="39.5" transform="translate(137 932)"/><g transform="translate(152 957)"><g transform="translate(0 0)"><path class="b" d="M1969.45,8821.2c-.011.018-.022.037-.031.053a.378.378,0,0,1-.037.075.069.069,0,0,1-.011.015,1.165,1.165,0,0,0-.15.493,1.778,1.778,0,0,0,.052.464c.03.117.058.238.085.361a.152.152,0,0,1-.3.063l-.015-.067c-.027-.1-.049-.2-.069-.288a2.425,2.425,0,0,0-.787-1.467c-.43-.273-1.081-.154-2.1.618l-.022.018c-1.184.9-2.721,2.062-4.583,1.219a5.074,5.074,0,0,1-1.583-1.25c-.725-.765-1.283-1.352-2.716-.268a7.742,7.742,0,0,1-3.672,1.644,2.812,2.812,0,0,1-2.641-1.12c-.68-.89-1.148-1.25-1.644-1.228a4.516,4.516,0,0,0-1.987,1.107,6.69,6.69,0,0,1-3.052,1.452,2.632,2.632,0,0,1-2.378-.963c-.125-.143-.255-.291-.376-.434-.982-1.143-1.406-1.633-3.107-.135a6.631,6.631,0,0,1-1.67,1.061,3.663,3.663,0,0,1-1.592.35,3.944,3.944,0,0,1-2.871-1.5c-.747-.782-1.282-1.343-3.08.2a5.7,5.7,0,0,1-.612.461,5.023,5.023,0,0,1-2.59.878,3.2,3.2,0,0,1-2.579-1.165,4.408,4.408,0,0,1-.335-.446,1.646,1.646,0,0,0-.282-.329,1.421,1.421,0,0,0-.982-.359,1.99,1.99,0,0,0-1.047.34,2.356,2.356,0,0,0-.367.3,1.036,1.036,0,0,1-.08.085.153.153,0,0,1-.212.009.152.152,0,0,1-.012-.215c.025-.028.051-.057.078-.084a.715.715,0,0,0,.148-.337.824.824,0,0,0-.073-.487.153.153,0,0,1-.006-.131h0l10.556-24.813a.766.766,0,0,1,.047-.111h0a1.251,1.251,0,0,1,.305-.372,1.988,1.988,0,0,1,.7-.37,1.626,1.626,0,0,1,.8-.042,1,1,0,0,1,.56.33,1.955,1.955,0,0,0,1.749.813,4.962,4.962,0,0,0,1.781-.674c1.626-.869,2.17-.33,2.726.222a1.534,1.534,0,0,0,1.25.6,4.8,4.8,0,0,0,1.542-.49c.158-.07.316-.141.472-.2a3.5,3.5,0,0,1,1.415-.353,2.558,2.558,0,0,1,1.4.541,1.878,1.878,0,0,0,.969.406,3.192,3.192,0,0,0,1.736-.6,3.428,3.428,0,0,1,1.586-.6,2.042,2.042,0,0,1,1.439.589c1.143.973,2.32.339,3.464-.276l.24-.129a1.7,1.7,0,0,1,2.186.2,4.308,4.308,0,0,0,.96.551,2.543,2.543,0,0,0,2.343-.439c.122-.069.243-.139.373-.207a2.367,2.367,0,0,1,.634-.235,1.368,1.368,0,0,1,.768.044,1.141,1.141,0,0,1,.6.556,1.916,1.916,0,0,1,.161.432h0l.157.607c.01.038.021.076.03.116l.809,3.12a4.576,4.576,0,0,1,.125.464.117.117,0,0,1,0,.03l.939,3.624a4.743,4.743,0,0,1,.131.49.114.114,0,0,1,0,.029l1.064,4.1c.041.137.078.279.112.429l2.91,11.222a2.155,2.155,0,0,1,.112.258,2.062,2.062,0,0,1,.108,1.135l.011.008Zm-48.9-.42a2.3,2.3,0,0,1,1.178-.369,1.718,1.718,0,0,1,1.189.436,1.965,1.965,0,0,1,.333.391,4.1,4.1,0,0,0,.312.414,2.907,2.907,0,0,0,2.342,1.061,4.725,4.725,0,0,0,2.429-.829,5.554,5.554,0,0,0,.58-.437c2.016-1.735,2.635-1.087,3.5-.182a3.68,3.68,0,0,0,2.668,1.4,3.328,3.328,0,0,0,1.454-.324,6.315,6.315,0,0,0,1.591-1.012c1.932-1.7,2.416-1.138,3.539.167.111.13.231.269.373.428a2.347,2.347,0,0,0,2.118.864,6.4,6.4,0,0,0,2.9-1.395,4.607,4.607,0,0,1,2.154-1.166c.611-.029,1.15.366,1.9,1.347a2.529,2.529,0,0,0,2.372,1,7.479,7.479,0,0,0,3.516-1.584c1.65-1.248,2.289-.576,3.12.3a4.822,4.822,0,0,0,1.487,1.182c1.7.768,3.154-.335,4.275-1.185l.022-.017c1.142-.865,1.907-.976,2.448-.631a1.8,1.8,0,0,1,.636.812,2.016,2.016,0,0,1,.165-.351,1.683,1.683,0,0,0-.109-.943,1.709,1.709,0,0,0-.367-.607,1.087,1.087,0,0,0-.616-.322,2.49,2.49,0,0,0-1.8.7h0l-.022.018h0c-1.183.91-2.721,2.092-4.583,1.268a4.96,4.96,0,0,1-1.583-1.232c-.725-.755-1.282-1.336-2.716-.235a7.833,7.833,0,0,1-3.671,1.683,2.786,2.786,0,0,1-2.641-1.092c-.68-.881-1.147-1.238-1.643-1.209a4.583,4.583,0,0,0-1.987,1.131,6.781,6.781,0,0,1-3.051,1.486,2.611,2.611,0,0,1-2.38-.939c-.125-.139-.254-.288-.376-.428-.982-1.131-1.4-1.618-3.107-.1a6.7,6.7,0,0,1-1.67,1.08,3.652,3.652,0,0,1-1.592.366,3.893,3.893,0,0,1-2.873-1.467c-.747-.774-1.282-1.329-3.08.237a6.032,6.032,0,0,1-.634.484,5.044,5.044,0,0,1-2.577.892,3.164,3.164,0,0,1-2.565-1.133,4.282,4.282,0,0,1-.34-.446,1.658,1.658,0,0,0-.279-.326,1.4,1.4,0,0,0-.978-.35,2,2,0,0,0-1.045.348,2.409,2.409,0,0,0-.387.322,1.133,1.133,0,0,1,.071.494Zm38.922-1.746-.738-6.029c-.523-.5-1.043-.738-2.116.088a7.03,7.03,0,0,1-3.293,1.508,2.505,2.505,0,0,1-2.378-.983c-.035-.044-.068-.088-.1-.129l-.043,6.093q.227.242.481.572a2.493,2.493,0,0,0,2.371.975,7.549,7.549,0,0,0,3.516-1.621c1.1-.842,1.746-.83,2.3-.473Zm-.795-6.487-.634-5.177c-.418-.327-.885-.405-1.731.244A6.453,6.453,0,0,1,1953.3,8809a2.307,2.307,0,0,1-2.187-.9c-.078-.1-.151-.192-.223-.277l-.037,5.2c.108.123.221.259.34.413a2.228,2.228,0,0,0,2.107.868,6.776,6.776,0,0,0,3.138-1.449c1.1-.846,1.7-.736,2.245-.3Zm-.685-5.595-.49-4c-.411-.369-.841-.514-1.684.132a5.947,5.947,0,0,1-2.781,1.274,2.131,2.131,0,0,1-2.021-.836l-.1-.129-.028,3.971a5.985,5.985,0,0,1,.46.54,2.021,2.021,0,0,0,1.916.788,6.162,6.162,0,0,0,2.864-1.324c.879-.674,1.413-.687,1.864-.42Zm-.544-4.438-.437-3.563c-.4-.377-.793-.557-1.608.07a5.54,5.54,0,0,1-2.588,1.186,1.992,1.992,0,0,1-1.873-.766l-.025,3.493c.107.116.22.252.339.406a1.848,1.848,0,0,0,1.75.72,5.667,5.667,0,0,0,2.626-1.213c.872-.671,1.377-.636,1.815-.333Zm-.492-4.017-.323-2.639a1.137,1.137,0,0,0-1.426-.216c-.178.081-.355.167-.533.255-1.167.574-2.411,1.186-3.708.288l-.02,2.776c.072.084.147.176.225.276a1.709,1.709,0,0,0,1.615.665,5.247,5.247,0,0,0,2.432-1.125C1956.065,8798.129,1956.54,8798.184,1956.96,8798.494Zm.016-2.381.329,2.69c.052.053.1.106.157.163a3.237,3.237,0,0,0,1.024.8c1.161.513,2.166-.26,2.939-.854h0l.016-.012h0c.813-.625,1.4-.709,1.82-.467a1.163,1.163,0,0,1,.126.086l-.537-2.07a.16.16,0,0,1-.011-.035l-.013-.059-.029-.11a1.569,1.569,0,0,0-.119-.3.832.832,0,0,0-.431-.405,1.029,1.029,0,0,0-.576-.028,1.92,1.92,0,0,0-.539.2c-.05.026-.146.077-.243.132a3.983,3.983,0,0,1-3.013.691,2.811,2.811,0,0,1-.9-.429Zm.391,3.192.428,3.5c.079.078.157.16.239.244a3.526,3.526,0,0,0,1.107.869c1.257.555,2.343-.281,3.178-.922l.016-.014c.872-.67,1.494-.76,1.947-.5a1.052,1.052,0,0,1,.162.113l-.8-3.1a1.368,1.368,0,0,0-.527-.789c-.318-.182-.788-.094-1.486.441h0l-.016.012h0c-.835.643-1.922,1.477-3.247.892a3.154,3.154,0,0,1-1-.743Zm.489,4,.478,3.9c.128.117.254.248.387.387a3.85,3.85,0,0,0,1.208.947c1.375.607,2.559-.3,3.471-1v0l.018-.014h0c.945-.727,1.589-.822,2.049-.541a.966.966,0,0,1,.139.1l-.9-3.471a1.5,1.5,0,0,0-.575-.865c-.347-.2-.857-.1-1.613.479l-.016.012c-.9.691-2.065,1.587-3.485.96a3.657,3.657,0,0,1-1.161-.893Zm.537,4.387.633,5.171c.073.072.147.15.222.229a4.242,4.242,0,0,0,1.325,1.039c1.511.666,2.81-.332,3.809-1.1l.02-.015a3.565,3.565,0,0,1,1.357-.71,1.387,1.387,0,0,1,.827.049,1.345,1.345,0,0,1,.469.317l-1.02-3.935a.158.158,0,0,1-.011-.034c-.005-.024-.011-.05-.016-.075l-.1-.395a1.685,1.685,0,0,0-.6-.992c-.351-.215-.882-.111-1.707.521h0l-.018.015h0c-.974.748-2.239,1.721-3.778,1.041a4.093,4.093,0,0,1-1.3-1.015l-.108-.113Zm.694,5.671.726,5.936c.158.143.315.3.479.477a4.745,4.745,0,0,0,1.487,1.165c1.7.75,3.154-.369,4.276-1.23h0l.022-.017h0a2.773,2.773,0,0,1,2.029-.761,1.337,1.337,0,0,1,.645.284l-1.264-4.876a.151.151,0,0,1-.018-.047,3.272,3.272,0,0,0-.518-1.276,1.119,1.119,0,0,0-.477-.377,1.091,1.091,0,0,0-.651-.034,3.244,3.244,0,0,0-1.237.653l-.02.014c-1.062.817-2.443,1.878-4.116,1.138a4.29,4.29,0,0,1-1.364-1.046Zm-8.585,5.924.043-6.152c-.4-.432-.72-.609-1.053-.59a4.073,4.073,0,0,0-1.769,1.006,6.077,6.077,0,0,1-2.738,1.334,2.346,2.346,0,0,1-2.143-.847c-.05-.056-.1-.114-.154-.175l-.792,6.385c.094.109.2.225.313.355a2.32,2.32,0,0,0,2.116.84,6.483,6.483,0,0,0,2.9-1.427,4.643,4.643,0,0,1,2.154-1.188,1.518,1.518,0,0,1,1.117.457Zm.047-6.578.037-5.215a1.072,1.072,0,0,0-.8-.379,3.741,3.741,0,0,0-1.611.92,5.581,5.581,0,0,1-2.511,1.223,2.163,2.163,0,0,1-1.971-.778c-.1-.108-.2-.226-.3-.339l-.66,5.32c.1.113.2.233.33.375a2.058,2.058,0,0,0,1.879.746,5.769,5.769,0,0,0,2.591-1.273,4.173,4.173,0,0,1,1.936-1.066,1.425,1.425,0,0,1,1.072.467Zm.04-5.611.029-4.046a1.066,1.066,0,0,0-.8-.421,3.425,3.425,0,0,0-1.474.842,5.12,5.12,0,0,1-2.314,1.125,2,2,0,0,1-1.823-.718l-.243-.277-.512,4.133.168.192c.09.1.186.214.3.346a1.872,1.872,0,0,0,1.707.679,5.272,5.272,0,0,0,2.364-1.161,3.841,3.841,0,0,1,1.778-.98,1.186,1.186,0,0,1,.816.285Zm.031-4.455.025-3.566c-.317-.348-.565-.492-.82-.478a3.193,3.193,0,0,0-1.363.78,4.783,4.783,0,0,1-2.153,1.048,1.865,1.865,0,0,1-1.7-.671l-.147-.166-.448,3.609c.045.051.092.105.14.159.082.095.17.2.279.319a1.708,1.708,0,0,0,1.559.619,4.836,4.836,0,0,0,2.167-1.064,3.519,3.519,0,0,1,1.641-.9,1.146,1.146,0,0,1,.821.314Zm.029-3.992.019-2.687a1.638,1.638,0,0,0-.894-.4,2.613,2.613,0,0,0-1.237.5,3.9,3.9,0,0,1-2.066.668,2.3,2.3,0,0,1-1.313-.477c-.091-.066-.177-.125-.259-.178l-.385,3.107.063.073c.076.088.157.181.259.294a1.578,1.578,0,0,0,1.438.572,4.518,4.518,0,0,0,2.007-.986,3.284,3.284,0,0,1,1.53-.842A1.127,1.127,0,0,1,1950.648,8798.646Zm-9.02,21.291.792-6.385c-.811-.931-1.211-1.291-2.671.01a6.039,6.039,0,0,1-1.5.97,3.292,3.292,0,0,1-1.431.329,3.325,3.325,0,0,1-2.385-1.116l-1.7,6.452a3.485,3.485,0,0,0,2.519,1.222,3.331,3.331,0,0,0,1.454-.341,6.373,6.373,0,0,0,1.591-1.029c1.807-1.61,2.347-1.227,3.33-.109Zm.842-6.789.66-5.317c-.625-.687-1.031-.869-2.246.214a5.528,5.528,0,0,1-1.374.887,2.99,2.99,0,0,1-1.315.3,3.112,3.112,0,0,1-2.277-1.114l-1.393,5.282a3.165,3.165,0,0,0,2.308,1.154,2.979,2.979,0,0,0,1.294-.3,5.735,5.735,0,0,0,1.42-.918c1.581-1.408,2.085-1.124,2.923-.187Zm.709-5.712.514-4.144c-.573-.63-.943-.8-2.054.189a5.075,5.075,0,0,1-1.266.818,2.686,2.686,0,0,1-3.263-.7l-1.1,4.172.036.036a2.943,2.943,0,0,0,2.163,1.116,2.719,2.719,0,0,0,1.178-.274,5.234,5.234,0,0,0,1.3-.839c1.329-1.184,1.832-1.067,2.5-.38Zm.563-4.538.45-3.621c-.563-.636-.891-.84-1.951.107a4.67,4.67,0,0,1-1.179.762,2.6,2.6,0,0,1-1.133.262,2.551,2.551,0,0,1-1.772-.773l-.956,3.627a2.69,2.69,0,0,0,1.972,1.014,2.509,2.509,0,0,0,1.077-.253,4.772,4.772,0,0,0,1.187-.769c1.226-1.092,1.692-.987,2.306-.355Zm.5-4.021.368-2.968a1.477,1.477,0,0,0-.636-.174,3.143,3.143,0,0,0-1.3.4,9.11,9.11,0,0,1-1.077.43,4.367,4.367,0,0,1-1.127.221,1.837,1.837,0,0,1-1.431-.49l-.792,3a2.369,2.369,0,0,0,1.7.808,2.276,2.276,0,0,0,1-.234,4.394,4.394,0,0,0,1.1-.711c1.178-1.05,1.6-.915,2.2-.28Zm-11.755,21.063,1.7-6.45c-.636-.658-1.127-1.09-2.682.267a5.711,5.711,0,0,1-.569.435,4.537,4.537,0,0,1-2.315.8,2.842,2.842,0,0,1-2.308-1.021c-.045-.051-.089-.1-.131-.16l-2.586,6.551c.047.061.093.117.142.172a2.87,2.87,0,0,0,2.328,1.031,4.753,4.753,0,0,0,2.418-.843,5.778,5.778,0,0,0,.6-.458c1.938-1.689,2.584-1.161,3.4-.323Zm1.792-6.794,1.393-5.281c-.529-.527-1-.8-2.327.357a4.813,4.813,0,0,1-.521.4,4.16,4.16,0,0,1-2.123.736,2.621,2.621,0,0,1-2.12-.937c-.06-.07-.12-.145-.177-.221l-2.086,5.282a3.612,3.612,0,0,0,.228.294,2.556,2.556,0,0,0,2.07.916,4.233,4.233,0,0,0,2.155-.752,5.162,5.162,0,0,0,.537-.408c1.672-1.458,2.278-1.082,2.973-.381Zm1.483-5.619,1.1-4.178c-.5-.5-.92-.781-2.155.3a4.922,4.922,0,0,1-.481.366,3.83,3.83,0,0,1-1.958.676,2.412,2.412,0,0,1-1.958-.864c-.042-.05-.083-.1-.124-.151l-1.651,4.185.016.023a3.151,3.151,0,0,0,.256.337,2.318,2.318,0,0,0,1.883.834,3.861,3.861,0,0,0,1.964-.686,4.5,4.5,0,0,0,.49-.373C1934.586,8806.736,1935.167,8806.962,1935.761,8807.527Zm1.191-4.518.956-3.625-.017-.018c-.5-.521-.865-.9-2.087.17a4.323,4.323,0,0,1-.448.342,3.58,3.58,0,0,1-1.824.631,2.245,2.245,0,0,1-1.793-.77l-1.42,3.6a2.649,2.649,0,0,0,.22.286,2.12,2.12,0,0,0,1.722.763,3.54,3.54,0,0,0,1.8-.628,4.022,4.022,0,0,0,.449-.342c1.353-1.18,1.886-.945,2.444-.406Zm1.047-3.969.789-2.989c-.407-.4-.783-.733-2.152-.009a5.19,5.19,0,0,1-1.677.629,2.233,2.233,0,0,1-1.8-.517h0l-1.289,3.265.068.082a1.967,1.967,0,0,0,1.59.7,3.269,3.269,0,0,0,1.664-.582,3.674,3.674,0,0,0,.415-.316c1.353-1.179,1.828-.844,2.395-.268Zm-17.3,20.665a2.3,2.3,0,0,1,1.206-.4,1.7,1.7,0,0,1,1.184.425,1.87,1.87,0,0,1,.295.331l2.585-6.548a1.287,1.287,0,0,0-.185-.2,1.479,1.479,0,0,0-1.029-.34,2.121,2.121,0,0,0-1.1.354,1.808,1.808,0,0,0-.353.3.15.15,0,0,1-.029.026l-2.574,6.049Zm2.835-6.664a2.464,2.464,0,0,1,1.215-.372,1.777,1.777,0,0,1,1.238.417,1.324,1.324,0,0,1,.111.107l2.087-5.285a.621.621,0,0,0-.073-.07,1.515,1.515,0,0,0-1.061-.328,2.235,2.235,0,0,0-1.137.35,1.519,1.519,0,0,0-.275.231l-2.106,4.951Zm2.348-5.519a2.577,2.577,0,0,1,1.161-.318,1.827,1.827,0,0,1,1.262.4l1.667-4.222c-.028-.031-.057-.06-.087-.088a1.411,1.411,0,0,0-.978-.3,2.062,2.062,0,0,0-1.051.322,1.339,1.339,0,0,0-.259.221.13.13,0,0,1-.03.026l-1.685,3.96Zm1.931-4.539a2.44,2.44,0,0,1,1.085-.295,1.7,1.7,0,0,1,1.188.376l.008.007,1.424-3.606-.056-.081a.884.884,0,0,0-.16-.186,1.19,1.19,0,0,0-.832-.266,1.772,1.772,0,0,0-.9.281,1.4,1.4,0,0,0-.246.209l-1.515,3.561Zm1.752-4.116a2.074,2.074,0,0,1,.9-.238,1.479,1.479,0,0,1,1.041.343,1.109,1.109,0,0,1,.148.154l1.26-3.19c-.076-.075-.151-.156-.226-.244a1.339,1.339,0,0,0-.143-.143.95.95,0,0,0-.75-.21,1.5,1.5,0,0,0-.763.361,1.713,1.713,0,0,0-.205.205l-1.26,2.963Zm1.579-3.618a1.675,1.675,0,0,1,.61-.211,1.247,1.247,0,0,1,.984.276,1.612,1.612,0,0,1,.18.179c.072.085.143.162.215.233a2.879,2.879,0,0,0,.214.192,1.952,1.952,0,0,0,1.569.451,4.962,4.962,0,0,0,1.576-.6c1.594-.844,2.03-.412,2.533.088a1.69,1.69,0,0,0,1.431.617,4.036,4.036,0,0,0,1.047-.206,9.371,9.371,0,0,0,1.042-.415,3.346,3.346,0,0,1,1.431-.425,2.391,2.391,0,0,1,1.355.57,2,2,0,0,0,1.144.42,3.6,3.6,0,0,0,1.9-.627,2.791,2.791,0,0,1,1.4-.543,2.208,2.208,0,0,1,1.257.6c1.191.908,2.388.32,3.509-.231.183-.09.364-.179.54-.259a1.4,1.4,0,0,1,1.767.275,2.93,2.93,0,0,0,1.1.608,3.746,3.746,0,0,0,2.787-.663c.069-.037.137-.076.246-.134a2.328,2.328,0,0,1,.622-.233,1.312,1.312,0,0,1,.746.044,1.072,1.072,0,0,1,.187.094c-.012-.028-.025-.054-.039-.079a.845.845,0,0,0-.445-.415,1.068,1.068,0,0,0-.6-.03,2.106,2.106,0,0,0-.55.2c-.117.063-.241.134-.366.205a2.787,2.787,0,0,1-2.6.459,4.582,4.582,0,0,1-1.025-.586,1.454,1.454,0,0,0-1.868-.178l-.239.127c-1.233.664-2.5,1.347-3.8.24a1.767,1.767,0,0,0-1.232-.518,3.183,3.183,0,0,0-1.439.553,3.445,3.445,0,0,1-1.908.646,2.115,2.115,0,0,1-1.124-.458,2.3,2.3,0,0,0-1.236-.49,3.317,3.317,0,0,0-1.293.332c-.153.062-.308.131-.464.2a4.97,4.97,0,0,1-1.645.516,1.779,1.779,0,0,1-1.484-.693c-.476-.471-.941-.932-2.368-.168a5.208,5.208,0,0,1-1.9.707,2.233,2.233,0,0,1-2.009-.919.7.7,0,0,0-.395-.229,1.325,1.325,0,0,0-.647.037,1.683,1.683,0,0,0-.593.313,1.026,1.026,0,0,0-.125.122Z" transform="translate(-1919.978 -8794.364)"/></g></g></g></svg>