<svg xmlns="http://www.w3.org/2000/svg" width="321" height="76.811" viewBox="0 0 321 76.811"><defs><style>.a{fill:#fff;}</style></defs><g transform="translate(-14.058 -14.591)"><g transform="translate(100.555 26.735)"><path class="a" d="M176.429,62.037v6.218H158.77a10.818,10.818,0,0,1-4.875-1.144,11.031,11.031,0,0,1-5.024-5.074,10.811,10.811,0,0,1-1.144-4.875V33.433h6.218V57.759a4.959,4.959,0,0,0,4.228,4.228Z" transform="translate(-147.726 -33.384)"/><path class="a" d="M232.289,68.178h-6.964l-3.184-6.218L214.53,47.037,206.92,61.96l-3.184,6.218h-6.965l3.184-6.218,14.575-28.6,14.575,28.6Z" transform="translate(-165.034 -33.357)"/><path class="a" d="M291.094,33.357V68.178h-6.218V45.992l-6.118,4.676-5.075,3.93-5.074-3.93-6.118-4.676V68.178h-6.219V33.357l6.219,4.776,11.192,8.605,11.193-8.605Z" transform="translate(-186.031 -33.357)"/><path class="a" d="M317.772,68.178V33.357h6.219V68.178Z" transform="translate(-207.734 -33.357)"/><path class="a" d="M369.89,33.406V68.228l-6.218-4.776L341.287,46.191V68.228h-6.219V33.506l6.219,4.776,22.385,17.262V33.357Z" transform="translate(-213.838 -33.357)"/><path class="a" d="M402.814,42.758v3.234H425.2V52.21H402.814v6.566A3.206,3.206,0,0,0,406,61.96h25.42v6.218H406a9.384,9.384,0,0,1-9.352-9.4V42.758a9.383,9.383,0,0,1,9.352-9.4h25.42v6.218H406A3.206,3.206,0,0,0,402.814,42.758Z" transform="translate(-235.568 -33.357)"/><path class="a" d="M456.146,68.255h.1l-.1.1Zm34.922-34.822L477.587,50.894l13.431,17.361h-7.86l-9.5-12.287-9.5,12.287H456.3l13.382-17.361L456.2,33.433h7.859l9.551,12.387,9.551-12.387h7.91Zm-.1,34.922-.05-.1h.05Z" transform="translate(-256.565 -33.384)"/></g><g transform="translate(100.555 69.882)"><path class="a" d="M155.283,104.228a2.006,2.006,0,0,0-.712-1.462,2.932,2.932,0,0,0-1.827-.481,3.1,3.1,0,0,0-1.712.385,1.257,1.257,0,0,0-.577,1.115,1.2,1.2,0,0,0,.452.981,4.1,4.1,0,0,0,1.529.634q1.1.27,2.086.529a10.385,10.385,0,0,1,1.7.586,5.246,5.246,0,0,1,.788.442,2.639,2.639,0,0,1,.635.615,2.868,2.868,0,0,1,.423.865,3.994,3.994,0,0,1,.154,1.173,4.069,4.069,0,0,1-.375,1.817,3.413,3.413,0,0,1-1.058,1.259,4.657,4.657,0,0,1-1.615.74,8.186,8.186,0,0,1-2.047.241,8.467,8.467,0,0,1-2.173-.26,4.8,4.8,0,0,1-1.692-.8,3.809,3.809,0,0,1-1.116-1.336,4.274,4.274,0,0,1-.423-1.875H150.3a1.929,1.929,0,0,0,.8,1.548,3.346,3.346,0,0,0,2.048.568,3.071,3.071,0,0,0,1.836-.472,1.557,1.557,0,0,0,.644-1.336,1.474,1.474,0,0,0-.086-.52,1.136,1.136,0,0,0-.307-.433,2.129,2.129,0,0,0-.606-.365,5.863,5.863,0,0,0-.981-.3q-1.193-.27-2.01-.472a8.463,8.463,0,0,1-1.49-.509,3.882,3.882,0,0,1-1.587-1.2,3.2,3.2,0,0,1-.548-1.952,4.237,4.237,0,0,1,.289-1.587,3.244,3.244,0,0,1,.875-1.24,4.112,4.112,0,0,1,1.462-.808,6.532,6.532,0,0,1,2.047-.289,6.947,6.947,0,0,1,2.154.308,4.56,4.56,0,0,1,1.587.865,3.92,3.92,0,0,1,1,1.327,4.442,4.442,0,0,1,.394,1.692Z" transform="translate(-147.726 -100.035)"/><path class="a" d="M167.222,111.048a2.7,2.7,0,0,0,.625,1.712,1.9,1.9,0,0,0,1.49.634,2.091,2.091,0,0,0,1.086-.278,1.263,1.263,0,0,0,.606-.778h2.576a4.147,4.147,0,0,1-1.538,2.249,4.355,4.355,0,0,1-2.615.789q-4.73,0-4.73-5.154a5.989,5.989,0,0,1,.308-1.981,4.265,4.265,0,0,1,.894-1.519,3.864,3.864,0,0,1,1.433-.971,5.235,5.235,0,0,1,1.942-.336,4,4,0,0,1,3.317,1.4,6.681,6.681,0,0,1,1.125,4.23Zm3.942-1.576a2.651,2.651,0,0,0-.182-.913,1.919,1.919,0,0,0-.433-.654,1.723,1.723,0,0,0-.615-.384,2.08,2.08,0,0,0-.712-.125,1.774,1.774,0,0,0-1.3.548,2.339,2.339,0,0,0-.624,1.528Z" transform="translate(-153.724 -101.933)"/><path class="a" d="M180,115.124v-9.461h2.346V106.8a3.058,3.058,0,0,1,.644-.75,2.781,2.781,0,0,1,.692-.413,2.671,2.671,0,0,1,.721-.182,7.1,7.1,0,0,1,.75-.039h.327v2.557a4.229,4.229,0,0,0-.692-.058A2.022,2.022,0,0,0,182.5,110.2v4.923Z" transform="translate(-159.114 -101.933)"/><path class="a" d="M192.235,115.261l-3.384-9.461h2.788l1.981,6.249,2-6.249h2.634l-3.4,9.461Z" transform="translate(-162.239 -102.069)"/><path class="a" d="M204.51,102.778v-2.327h2.5v2.327Zm0,10.6v-9.461h2.5v9.461Z" transform="translate(-167.765 -100.182)"/><path class="a" d="M218.55,111.7a4.007,4.007,0,0,1-.471,1.5,4.054,4.054,0,0,1-.953,1.154,4.372,4.372,0,0,1-1.317.75,4.983,4.983,0,0,1-3.365-.048,3.627,3.627,0,0,1-1.375-.962,4.467,4.467,0,0,1-.894-1.6,7.009,7.009,0,0,1-.318-2.221,6.741,6.741,0,0,1,.318-2.192,3.94,3.94,0,0,1,.894-1.509,3.6,3.6,0,0,1,1.395-.875,5.433,5.433,0,0,1,1.817-.289,5.364,5.364,0,0,1,1.682.25,3.938,3.938,0,0,1,1.327.731,3.5,3.5,0,0,1,.894,1.153,4.042,4.042,0,0,1,.384,1.5h-2.519a1.73,1.73,0,0,0-.586-1.145,1.8,1.8,0,0,0-1.2-.413,2.062,2.062,0,0,0-.75.135,1.458,1.458,0,0,0-.606.452,2.367,2.367,0,0,0-.413.846,4.722,4.722,0,0,0-.154,1.3,3.873,3.873,0,0,0,.558,2.307,1.6,1.6,0,0,0,1.288.751,1.977,1.977,0,0,0,1.25-.4,1.615,1.615,0,0,0,.6-1.173Z" transform="translate(-169.652 -101.933)"/><path class="a" d="M224.508,102.778v-2.327h2.5v2.327Zm0,10.6v-9.461h2.5v9.461Z" transform="translate(-174.822 -100.182)"/><path class="a" d="M234.661,115.375a5.439,5.439,0,0,1-2.057-.366,4.215,4.215,0,0,1-2.481-2.595,6.009,6.009,0,0,1-.327-2.019,5.925,5.925,0,0,1,.336-2.039,4.39,4.39,0,0,1,.971-1.576,4.333,4.333,0,0,1,1.528-1.009,5.459,5.459,0,0,1,2.029-.356,5.331,5.331,0,0,1,2,.356,4.224,4.224,0,0,1,2.471,2.567,5.984,5.984,0,0,1,.337,2.058,5.9,5.9,0,0,1-.337,2.047,4.474,4.474,0,0,1-.962,1.567,4.237,4.237,0,0,1-1.519,1.009A5.349,5.349,0,0,1,234.661,115.375Zm0-2.1q2.288,0,2.288-2.884,0-2.866-2.288-2.865t-2.288,2.865Q232.373,113.278,234.661,113.279Z" transform="translate(-176.688 -101.933)"/><path class="a" d="M251.653,108.529a1.335,1.335,0,0,0-.5-.971,2.27,2.27,0,0,0-1.269-.28,2.637,2.637,0,0,0-1.1.182.626.626,0,0,0-.384.606.7.7,0,0,0,.384.644,5.14,5.14,0,0,0,1.154.433q.807.23,1.538.413a11.545,11.545,0,0,1,1.288.394,2.7,2.7,0,0,1,1.154.836,2.342,2.342,0,0,1,.4,1.452,2.774,2.774,0,0,1-1.048,2.308,4.909,4.909,0,0,1-3.086.827,5.3,5.3,0,0,1-3.356-.923,3,3,0,0,1-1.2-2.365h2.577a1.193,1.193,0,0,0,.519,1.038,2.472,2.472,0,0,0,1.442.366,2.877,2.877,0,0,0,1.173-.221.772.772,0,0,0,.5-.76.729.729,0,0,0-.452-.711,5.886,5.886,0,0,0-1.067-.366q-1.193-.288-1.923-.52a4.972,4.972,0,0,1-1.231-.557,2.411,2.411,0,0,1-.932-.962,2.667,2.667,0,0,1-.26-1.173,2.928,2.928,0,0,1,.212-1.115,2.154,2.154,0,0,1,.692-.894,3.552,3.552,0,0,1,1.241-.588,6.975,6.975,0,0,1,1.836-.211,4.775,4.775,0,0,1,3.028.788,3.087,3.087,0,0,1,1.067,2.327Z" transform="translate(-182.277 -101.933)"/><path class="a" d="M267.325,113.373V100.451h2.5v12.922Z" transform="translate(-189.932 -100.182)"/><path class="a" d="M278.609,115.124a3.766,3.766,0,0,1-.154-.846,3.1,3.1,0,0,1-1.173.8,4.455,4.455,0,0,1-1.692.3,3.39,3.39,0,0,1-2.395-.721,2.47,2.47,0,0,1-.758-1.875,3.431,3.431,0,0,1,.326-1.625,2.438,2.438,0,0,1,.9-.952,4.363,4.363,0,0,1,1.375-.509q.8-.163,1.739-.3a3.351,3.351,0,0,0,1.27-.356.879.879,0,0,0-.106-1.442,2.26,2.26,0,0,0-1.163-.259,1.68,1.68,0,0,0-1.24.384,1.8,1.8,0,0,0-.471,1.019h-2.327a4.29,4.29,0,0,1,.241-1.346,2.578,2.578,0,0,1,.712-1.058,3.333,3.333,0,0,1,1.278-.683,6.683,6.683,0,0,1,1.923-.24,6.262,6.262,0,0,1,1.894.25,3.057,3.057,0,0,1,1.25.721,2.749,2.749,0,0,1,.683,1.174,5.489,5.489,0,0,1,.212,1.586v5.98Zm-.173-4.634a1.36,1.36,0,0,1-.557.308,10.176,10.176,0,0,1-1.058.249,3.6,3.6,0,0,0-1.481.538,1.143,1.143,0,0,0-.4.942q0,1.058,1.211,1.058a2.4,2.4,0,0,0,.894-.164,2.184,2.184,0,0,0,1.193-1.1,1.811,1.811,0,0,0,.182-.8Z" transform="translate(-191.736 -101.933)"/><path class="a" d="M298.359,115.124v-5.73a2.279,2.279,0,0,0-.4-1.4,1.279,1.279,0,0,0-1.077-.538,1.392,1.392,0,0,0-1.143.577,2.266,2.266,0,0,0-.452,1.442v5.653h-2.5v-5.692a4.739,4.739,0,0,0-.077-.942,1.267,1.267,0,0,0-.26-.577.979.979,0,0,0-.471-.3,2.428,2.428,0,0,0-.692-.087q-1.52,0-1.519,1.846v5.75h-2.5v-9.461h2.346v1.385a2.82,2.82,0,0,1,1.154-1.289,3.5,3.5,0,0,1,1.615-.346,4.344,4.344,0,0,1,.855.076,2.1,2.1,0,0,1,.673.26,2.729,2.729,0,0,1,.568.471,5.424,5.424,0,0,1,.538.692,2.527,2.527,0,0,1,1.019-1.144,3.109,3.109,0,0,1,1.539-.356,3.474,3.474,0,0,1,1.308.24,2.956,2.956,0,0,1,1.019.673,3.2,3.2,0,0,1,.664,1.01,3.16,3.16,0,0,1,.241,1.23v6.557Z" transform="translate(-196.968 -101.933)"/><path class="a" d="M309.758,102.778v-2.327h2.5v2.327Zm0,10.6v-9.461h2.5v9.461Z" transform="translate(-204.906 -100.182)"/><path class="a" d="M321.431,115.124v-5.73a2.2,2.2,0,0,0-.365-1.481,1.678,1.678,0,0,0-1.25-.384q-1.942,0-1.942,2.172v5.423h-2.5v-9.461h2.385v1.385a3.039,3.039,0,0,1,1.173-1.221,3.8,3.8,0,0,1,1.884-.413,3.758,3.758,0,0,1,1.25.2,2.644,2.644,0,0,1,.99.606,2.9,2.9,0,0,1,.654.991,3.559,3.559,0,0,1,.24,1.355v6.557Z" transform="translate(-206.888 -101.933)"/><path class="a" d="M336.107,115.124a3.8,3.8,0,0,1-.154-.846,3.094,3.094,0,0,1-1.173.8,4.455,4.455,0,0,1-1.692.3,3.39,3.39,0,0,1-2.395-.721,2.47,2.47,0,0,1-.758-1.875,3.439,3.439,0,0,1,.326-1.625,2.437,2.437,0,0,1,.9-.952,4.362,4.362,0,0,1,1.375-.509q.8-.163,1.739-.3a3.35,3.35,0,0,0,1.27-.356.879.879,0,0,0-.106-1.442,2.259,2.259,0,0,0-1.163-.259,1.68,1.68,0,0,0-1.24.384,1.8,1.8,0,0,0-.471,1.019h-2.327a4.29,4.29,0,0,1,.241-1.346,2.578,2.578,0,0,1,.712-1.058,3.333,3.333,0,0,1,1.278-.683,6.684,6.684,0,0,1,1.923-.24,6.262,6.262,0,0,1,1.894.25,3.064,3.064,0,0,1,1.25.721,2.755,2.755,0,0,1,.682,1.174,5.488,5.488,0,0,1,.212,1.586v5.98Zm-.173-4.634a1.36,1.36,0,0,1-.557.308,10.176,10.176,0,0,1-1.058.249,3.6,3.6,0,0,0-1.481.538,1.143,1.143,0,0,0-.4.942q0,1.058,1.211,1.058a2.4,2.4,0,0,0,.894-.164,2.184,2.184,0,0,0,1.193-1.1,1.811,1.811,0,0,0,.182-.8Z" transform="translate(-212.026 -101.933)"/><path class="a" d="M351.214,113.373l-.019-1.154a2.885,2.885,0,0,1-2.634,1.4,3.9,3.9,0,0,1-1.654-.346,3.618,3.618,0,0,1-1.288-1,4.836,4.836,0,0,1-.846-1.6,6.859,6.859,0,0,1-.307-2.134,7.064,7.064,0,0,1,.259-1.971,4.632,4.632,0,0,1,.76-1.548,3.432,3.432,0,0,1,1.221-1.009,3.67,3.67,0,0,1,1.644-.356,3.29,3.29,0,0,1,2.808,1.481v-4.692h2.461v12.922Zm-2.077-1.789a1.865,1.865,0,0,0,1.51-.75,3.026,3.026,0,0,0,.6-1.961q0-3.077-2.1-3.077Q347,105.8,347,108.72a3.359,3.359,0,0,0,.6,2.067A1.837,1.837,0,0,0,349.138,111.584Z" transform="translate(-217.154 -100.182)"/><path class="a" d="M364.84,115.375a5.447,5.447,0,0,1-2.058-.366,4.216,4.216,0,0,1-2.48-2.595,6.024,6.024,0,0,1-.327-2.019,5.909,5.909,0,0,1,.336-2.039,4.39,4.39,0,0,1,.971-1.576,4.328,4.328,0,0,1,1.529-1.009,5.457,5.457,0,0,1,2.029-.356,5.325,5.325,0,0,1,2,.356,4.219,4.219,0,0,1,2.471,2.567,5.97,5.97,0,0,1,.337,2.058,5.884,5.884,0,0,1-.337,2.047,4.465,4.465,0,0,1-.961,1.567,4.246,4.246,0,0,1-1.519,1.009A5.346,5.346,0,0,1,364.84,115.375Zm0-2.1q2.289,0,2.288-2.884,0-2.866-2.288-2.865t-2.288,2.865Q362.552,113.278,364.84,113.279Z" transform="translate(-222.627 -101.933)"/><path class="a" d="M381.832,108.529a1.333,1.333,0,0,0-.5-.971,2.274,2.274,0,0,0-1.27-.28,2.634,2.634,0,0,0-1.1.182.625.625,0,0,0-.384.606.7.7,0,0,0,.384.644,5.133,5.133,0,0,0,1.154.433q.808.23,1.538.413a11.552,11.552,0,0,1,1.288.394,2.7,2.7,0,0,1,1.153.836,2.342,2.342,0,0,1,.4,1.452,2.774,2.774,0,0,1-1.048,2.308,4.909,4.909,0,0,1-3.087.827,5.294,5.294,0,0,1-3.355-.923,3,3,0,0,1-1.2-2.365h2.577a1.192,1.192,0,0,0,.52,1.038,2.468,2.468,0,0,0,1.442.366,2.88,2.88,0,0,0,1.173-.221.773.773,0,0,0,.5-.76.729.729,0,0,0-.452-.711,5.9,5.9,0,0,0-1.068-.366q-1.192-.288-1.922-.52a4.964,4.964,0,0,1-1.231-.557,2.416,2.416,0,0,1-.933-.962,2.659,2.659,0,0,1-.259-1.173,2.928,2.928,0,0,1,.211-1.115,2.15,2.15,0,0,1,.692-.894,3.548,3.548,0,0,1,1.24-.588,6.975,6.975,0,0,1,1.836-.211,4.777,4.777,0,0,1,3.029.788,3.087,3.087,0,0,1,1.066,2.327Z" transform="translate(-228.216 -101.933)"/></g><g transform="translate(14.058 14.591)"><g transform="translate(0 0)"><path class="a" d="M59.238,65.534h.481L78.5,16.847c-.437-.131-.876-.259-1.319-.375L56.515,67.883Z" transform="translate(-29.041 -15.255)"/><path class="a" d="M131.459,69.606a38.531,38.531,0,0,0-.82-7.912L129,83.131A38.317,38.317,0,0,0,131.459,69.606Z" transform="translate(-54.621 -31.213)"/><path class="a" d="M124.88,79.8l1.993-26.119a38.153,38.153,0,0,0-3.056-7.627l-3.733,30.086Z" transform="translate(-51.474 -25.693)"/><path class="a" d="M74.848,70.44,89.964,20.461a38.116,38.116,0,0,0-3.5-1.619l-16.737,47.8Z" transform="translate(-33.702 -16.091)"/><path class="a" d="M66.522,65.87,83.268,18.045q-.879-.333-1.779-.623L62.8,65.87Z" transform="translate(-31.258 -15.59)"/><path class="a" d="M108.839,71.417l.184,0,5.559-35.6q-1.094-1.392-2.31-2.678l-7.855,41.638Z" transform="translate(-45.945 -21.138)"/><path class="a" d="M94.159,71.76l.268-.2,8.127-43.084a38.54,38.54,0,0,0-8.656-6.53L78.816,71.808Zm-5.527-3.186a1.681,1.681,0,0,1,1.523-1.321,1,1,0,0,1,.95,1.321A1.681,1.681,0,0,1,89.582,69.9,1,1,0,0,1,88.632,68.574Zm-3.845-1.321a1,1,0,0,1,.95,1.321A1.681,1.681,0,0,1,84.214,69.9a1,1,0,0,1-.949-1.321A1.68,1.68,0,0,1,84.787,67.253Z" transform="translate(-36.911 -17.185)"/><path class="a" d="M116.712,73.416l3.867-31.169a38.506,38.506,0,0,0-2.363-3.61l-5.423,34.731Z" transform="translate(-48.901 -23.077)"/><path class="a" d="M77.758,67.3,72.13,71.585q-8.677.028-17.353.054L48.931,67.3H45.144l-4.814,4.152-19.037-.216L50.788,14.616A38.416,38.416,0,1,0,86.435,70.96l-4.727-3.608Z" transform="translate(-14.058 -14.6)"/><g transform="translate(11.199)"><path class="a" d="M59.635,14.591,31.365,68.862l14.185.16.762-.657,21.2-52.746A38.438,38.438,0,0,0,59.635,14.591ZM38.345,65.98A1.681,1.681,0,0,1,36.822,67.3a1,1,0,0,1-.949-1.321,1.679,1.679,0,0,1,1.522-1.321A1,1,0,0,1,38.345,65.98Zm5.368,0A1.681,1.681,0,0,1,42.19,67.3a1,1,0,0,1-.95-1.321,1.681,1.681,0,0,1,1.523-1.321A1,1,0,0,1,43.714,65.98Z" transform="translate(-31.365 -14.591)"/></g></g></g></g></svg>