<?xml version="1.0" encoding="UTF-8"?>
<svg xmlns="http://www.w3.org/2000/svg" xmlns:xlink="http://www.w3.org/1999/xlink" width="183pt" height="70pt" viewBox="0 0 183 70" version="1.1">
<g id="surface1">
<path style=" stroke:none;fill-rule:nonzero;fill:rgb(0%,0%,0%);fill-opacity:1;" d="M 48.070312 10.425781 C 46.027344 11.058594 44.027344 14.324219 43.207031 18.378906 C 43 19.410156 43.019531 21.253906 43.261719 22.074219 C 43.507812 22.941406 44.113281 23.675781 44.8125 23.941406 C 45.628906 24.25 45.652344 23.953125 44.84375 23.5625 C 44.203125 23.261719 44.027344 23.03125 43.816406 22.261719 C 43.121094 19.554688 44.953125 13.902344 47.21875 11.804688 C 47.980469 11.105469 48.546875 10.847656 49.242188 10.902344 C 50.390625 11.003906 51.011719 11.824219 51.132812 13.425781 C 51.472656 17.867188 48.214844 27.683594 41.253906 43.183594 C 41.109375 43.515625 40.84375 43.984375 40.675781 44.238281 C 40.324219 44.75 39.835938 45.691406 39.738281 46.027344 C 39.707031 46.148438 39.726562 46.324219 39.78125 46.414062 C 39.949219 46.671875 40.554688 45.9375 42.191406 43.472656 C 44.414062 40.140625 45.175781 38.863281 49.199219 31.757812 C 49.804688 30.691406 50.492188 29.492188 50.722656 29.09375 C 50.953125 28.691406 51.773438 27.273438 52.546875 25.929688 C 55.34375 21.097656 57.398438 17.886719 58.964844 15.921875 C 60.722656 13.726562 61.90625 13.148438 62.449219 14.214844 C 62.691406 14.691406 62.878906 16.035156 62.878906 17.246094 C 62.878906 20.019531 62.015625 26.707031 60.679688 34.476562 C 60.382812 36.210938 60.371094 36.375 60.523438 36.554688 C 60.625 36.664062 60.777344 36.753906 60.878906 36.753906 C 60.976562 36.753906 61.375 36.289062 61.761719 35.722656 C 67.816406 27.027344 73.410156 20.597656 75.839844 19.554688 C 76.472656 19.277344 77.101562 19.253906 77.410156 19.5 C 77.597656 19.644531 77.632812 19.789062 77.621094 20.632812 C 77.597656 22.152344 77.101562 24.097656 74.980469 30.925781 C 73.253906 36.488281 72.648438 38.886719 72.316406 41.472656 C 71.996094 43.9375 72.347656 45.828125 73.300781 46.847656 C 73.632812 47.203125 74.59375 47.746094 74.890625 47.746094 C 75.199219 47.746094 74.859375 47.382812 74.328125 47.148438 C 73.210938 46.636719 72.921875 46.039062 72.847656 44.128906 C 72.757812 41.605469 73.609375 37.6875 75.585938 31.480469 C 77.445312 25.671875 78.050781 23.195312 78.0625 21.320312 C 78.074219 20.097656 77.820312 19.398438 77.253906 19.066406 C 75.34375 17.933594 70.648438 22.339844 63.289062 32.179688 C 62.128906 33.734375 61.441406 34.566406 61.441406 34.410156 C 61.441406 34.289062 61.542969 33.625 61.664062 32.945312 C 62.25 29.601562 62.910156 24.21875 63.109375 21.207031 C 63.320312 18.121094 63.101562 15.191406 62.582031 14.15625 C 61.144531 11.304688 58.382812 14.234375 51.804688 25.59375 C 50.921875 27.117188 48.886719 30.648438 47.296875 33.421875 C 45.695312 36.199219 44.324219 38.574219 44.246094 38.699219 C 44.003906 39.042969 44.058594 38.796875 44.414062 38 C 47.605469 30.613281 50.292969 22.640625 51.164062 17.878906 C 51.464844 16.265625 51.574219 13.691406 51.386719 12.871094 C 51.097656 11.613281 50.5 10.894531 49.464844 10.527344 C 48.855469 10.316406 48.511719 10.292969 48.070312 10.425781 Z M 48.070312 10.425781 "/>
<path style=" stroke:none;fill-rule:nonzero;fill:rgb(0%,0%,0%);fill-opacity:1;" d="M 93.082031 17.3125 C 91.984375 18.234375 88.847656 25.339844 86.726562 31.703125 L 86.25 33.132812 L 85.257812 34.144531 C 84.183594 35.246094 83.199219 35.976562 82.804688 35.976562 C 82.359375 35.976562 82.339844 35.410156 82.738281 33.488281 C 82.914062 32.644531 82.914062 32.613281 82.714844 32.46875 C 82.605469 32.378906 82.449219 32.3125 82.382812 32.3125 C 82.316406 32.3125 81.941406 32.746094 81.554688 33.277344 C 81.15625 33.824219 80.515625 34.578125 80.117188 34.988281 C 79.433594 35.675781 78.4375 36.355469 78.304688 36.222656 C 78.183594 36.097656 78.238281 35.234375 78.414062 34.632812 C 79.011719 32.625 80.539062 31.179688 82.074219 31.179688 C 82.992188 31.179688 83.289062 31.324219 83.542969 31.914062 C 83.765625 32.433594 84.207031 32.8125 84.207031 32.480469 C 84.207031 31.980469 83.410156 31.101562 82.703125 30.800781 C 82.105469 30.546875 80.925781 30.601562 80.273438 30.914062 C 78.769531 31.613281 77.34375 34.101562 77.621094 35.554688 C 77.71875 36.109375 78.160156 36.621094 78.625 36.710938 C 79.191406 36.808594 79.730469 36.488281 80.8125 35.398438 L 81.773438 34.421875 L 81.773438 34.976562 C 81.773438 35.675781 82.0625 36.410156 82.394531 36.53125 C 82.925781 36.730469 83.554688 36.398438 85.046875 35.132812 C 85.886719 34.410156 85.863281 34.300781 85.3125 36.367188 C 85.070312 37.289062 84.945312 38.054688 84.902344 38.863281 C 84.847656 39.996094 84.847656 40.050781 85.113281 40.351562 C 85.34375 40.628906 85.421875 40.664062 85.765625 40.585938 C 86.382812 40.453125 87.917969 38.773438 89.511719 36.5 C 90.882812 34.554688 90.890625 34.535156 90.925781 34.945312 C 91.125 37.585938 91.355469 38.53125 91.796875 38.53125 C 91.875 38.53125 92.164062 38.242188 92.429688 37.886719 C 95.023438 34.488281 97.511719 31.234375 97.609375 31.113281 C 97.6875 31.011719 97.667969 30.914062 97.523438 30.757812 C 97.269531 30.46875 97.148438 30.480469 97.035156 30.792969 C 96.714844 31.625 94.695312 34.222656 92.671875 36.398438 C 92.050781 37.066406 91.808594 37.265625 91.765625 37.144531 C 91.722656 37.042969 91.722656 35.988281 91.753906 34.777344 C 91.808594 32.445312 91.953125 31.636719 92.394531 31.191406 C 92.671875 30.914062 92.605469 30.679688 92.207031 30.582031 C 91.976562 30.515625 91.863281 30.558594 91.699219 30.746094 C 91.476562 31.023438 91.167969 31.980469 91.167969 32.390625 C 91.167969 32.980469 85.917969 40.253906 85.488281 40.253906 C 85.3125 40.253906 85.390625 39.242188 85.652344 38.03125 C 86.074219 36.144531 87.046875 32.933594 88.074219 30.09375 C 90.363281 23.785156 92.714844 18.675781 93.730469 17.820312 C 94.050781 17.542969 94.0625 17.535156 93.875 17.324219 C 93.632812 17.042969 93.402344 17.042969 93.082031 17.3125 Z M 93.082031 17.3125 "/>
<path style=" stroke:none;fill-rule:nonzero;fill:rgb(0%,0%,0%);fill-opacity:1;" d="M 134.433594 20.398438 C 134.101562 21.296875 132.464844 25.140625 131.558594 27.148438 C 131.148438 28.070312 129.515625 31.347656 129.394531 31.492188 C 129.328125 31.578125 129.117188 31.570312 128.675781 31.457031 C 127.382812 31.125 126.628906 31.558594 125.039062 33.589844 C 124.289062 34.542969 123.515625 35.320312 122.816406 35.820312 C 121.976562 36.421875 121.757812 36.453125 121.84375 35.945312 C 122 35 122.1875 34.367188 122.683594 33.035156 C 123.558594 30.726562 123.523438 30.878906 123.214844 30.625 L 122.9375 30.402344 L 122.695312 30.714844 C 120.089844 34.113281 118.320312 35.910156 117.347656 36.144531 C 117.09375 36.210938 117.050781 36.175781 116.984375 35.855469 C 116.730469 34.578125 117.855469 31.203125 118.542969 31.203125 C 118.695312 31.203125 118.695312 31.167969 118.519531 30.980469 C 117.878906 30.257812 117.027344 31.300781 116.53125 33.421875 C 116.253906 34.601562 116.21875 35.15625 116.410156 35.789062 C 116.605469 36.476562 116.925781 36.753906 117.492188 36.753906 C 118.199219 36.742188 118.796875 36.34375 120.210938 34.910156 C 121.128906 33.988281 121.570312 33.613281 121.523438 33.777344 C 121.09375 35.675781 121.070312 36 121.390625 36.5 C 121.492188 36.644531 121.703125 36.808594 121.855469 36.875 C 122.441406 37.097656 123.0625 36.800781 124.164062 35.722656 L 124.730469 35.175781 L 124.785156 35.6875 C 124.894531 36.644531 125.546875 37.210938 126.253906 36.976562 C 126.949219 36.742188 128.507812 34.800781 129.625 32.777344 C 129.769531 32.523438 129.921875 32.3125 129.980469 32.3125 C 130.023438 32.3125 130.066406 32.246094 130.066406 32.167969 C 130.054688 32.035156 131.636719 28.859375 131.691406 28.902344 C 131.703125 28.914062 131.515625 29.625 131.273438 30.480469 C 130.15625 34.378906 129.402344 38.308594 129.402344 40.195312 C 129.402344 41.164062 129.65625 42.027344 130.023438 42.261719 C 130.375 42.507812 130.496094 42.375 130.210938 42.050781 C 129.824219 41.628906 129.703125 41.03125 129.769531 39.875 C 129.957031 36.898438 131.480469 31.3125 134.53125 22.507812 C 135.273438 20.355469 135.304688 20.109375 134.863281 19.941406 C 134.773438 19.910156 134.675781 19.875 134.664062 19.875 C 134.640625 19.875 134.542969 20.109375 134.433594 20.398438 Z M 128.941406 31.96875 C 129.09375 32.070312 128.628906 32.921875 127.613281 34.457031 C 126.875 35.554688 125.691406 36.621094 125.457031 36.386719 C 125.328125 36.242188 125.679688 34.644531 125.976562 34.011719 C 126.429688 33.089844 127.195312 32.257812 127.78125 32.058594 C 128.308594 31.859375 128.730469 31.835938 128.941406 31.96875 Z M 128.941406 31.96875 "/>
<path style=" stroke:none;fill-rule:nonzero;fill:rgb(0%,0%,0%);fill-opacity:1;" d="M 118.828125 21.351562 C 118.410156 21.839844 117.832031 22.785156 117.238281 24.007812 L 116.761719 24.972656 L 115.765625 25.207031 C 114.464844 25.515625 113.082031 26.050781 112.132812 26.582031 C 111.160156 27.128906 111.257812 27.359375 112.296875 26.949219 C 113.257812 26.5625 114.164062 26.261719 115.191406 25.996094 C 116.210938 25.726562 116.410156 25.707031 116.332031 25.894531 C 115.558594 27.703125 114.730469 29.726562 114.210938 31.058594 C 113.832031 32.046875 113.503906 32.757812 113.425781 32.757812 C 113.269531 32.757812 111.945312 33.855469 110.984375 34.800781 C 110.417969 35.332031 110.398438 35.34375 110.230469 35.144531 C 109.800781 34.578125 109.710938 34.277344 109.753906 33.546875 C 109.84375 32.28125 110.738281 30.980469 111.84375 30.480469 C 112.273438 30.28125 112.285156 30.28125 112.53125 30.515625 C 112.839844 30.8125 113.050781 30.824219 113.050781 30.558594 C 113.039062 30.3125 112.851562 30.070312 112.472656 29.824219 C 111.65625 29.292969 109.878906 30.589844 109.300781 32.144531 C 108.882812 33.269531 109.09375 34.355469 109.867188 35.167969 L 110.207031 35.523438 L 109.667969 36.15625 C 108.351562 37.675781 107.632812 38.808594 107.632812 39.363281 C 107.632812 39.695312 108.085938 40.195312 108.375 40.195312 C 109.523438 40.1875 112.03125 37.699219 111.777344 36.84375 C 111.734375 36.699219 111.546875 36.421875 111.347656 36.222656 L 111.003906 35.84375 L 112 34.921875 C 112.550781 34.410156 113.003906 34.011719 113.027344 34.035156 C 113.050781 34.054688 112.71875 35.132812 112.296875 36.445312 C 111.191406 39.808594 110.605469 42.328125 110.585938 43.773438 C 110.574219 44.417969 110.605469 44.5625 110.839844 44.804688 C 110.984375 44.960938 111.125 45.082031 111.160156 45.082031 C 111.191406 45.082031 111.226562 44.648438 111.238281 44.105469 C 111.246094 43.394531 111.347656 42.707031 111.644531 41.527344 C 112.078125 39.742188 113.003906 36.632812 113.492188 35.320312 C 113.667969 34.855469 113.988281 33.957031 114.210938 33.3125 C 114.664062 32.035156 115.945312 28.757812 116.417969 27.703125 C 117.46875 25.351562 117.324219 25.5625 117.898438 25.496094 C 118.464844 25.429688 119.050781 25.40625 119.757812 25.417969 C 120.15625 25.429688 120.222656 25.472656 120.320312 25.75 C 120.386719 25.929688 120.542969 26.128906 120.664062 26.195312 C 121.128906 26.449219 121.003906 25.894531 120.484375 25.40625 C 120.097656 25.039062 118.949219 24.71875 118.277344 24.796875 C 118 24.828125 117.800781 24.796875 117.800781 24.730469 C 117.800781 24.574219 118.75 22.820312 119.136719 22.242188 C 119.324219 21.976562 119.601562 21.699219 119.757812 21.621094 L 120.042969 21.464844 L 119.800781 21.21875 C 119.46875 20.886719 119.203125 20.929688 118.828125 21.351562 Z M 111.058594 36.699219 C 111.058594 37.308594 110.054688 38.421875 108.773438 39.242188 C 108.472656 39.417969 108.296875 39.484375 108.296875 39.398438 C 108.308594 39.164062 109.179688 37.929688 110.011719 36.988281 C 110.839844 36.042969 111.058594 35.988281 111.058594 36.699219 Z M 111.058594 36.699219 "/>
<path style=" stroke:none;fill-rule:nonzero;fill:rgb(0%,0%,0%);fill-opacity:1;" d="M 139.019531 30.757812 C 138.300781 31.136719 137.746094 31.722656 137.261719 32.636719 C 136.917969 33.289062 135.613281 34.621094 134.046875 35.910156 C 133.40625 36.421875 132.199219 37.199219 132.023438 37.199219 C 131.8125 37.199219 132.078125 36.210938 132.773438 34.476562 C 133.859375 31.722656 134.011719 31.070312 133.625 30.726562 C 133.292969 30.425781 133.207031 30.503906 133.082031 31.167969 C 133.015625 31.523438 132.609375 32.734375 132.167969 33.867188 C 131.226562 36.277344 131.09375 37.03125 131.503906 37.476562 C 131.714844 37.699219 131.867188 37.753906 132.277344 37.753906 C 132.71875 37.753906 132.929688 37.664062 133.613281 37.222656 C 134.066406 36.921875 134.886719 36.277344 135.4375 35.789062 L 136.441406 34.890625 L 136.507812 35.609375 C 136.554688 36.234375 136.609375 36.375 136.917969 36.699219 C 138.101562 37.921875 140.246094 36.398438 141.117188 33.722656 C 141.21875 33.414062 141.292969 33.324219 141.425781 33.355469 C 141.925781 33.511719 143.152344 33.644531 143.238281 33.554688 C 143.472656 33.324219 143.195312 33.113281 142.519531 33.046875 C 141.316406 32.914062 141.339844 32.921875 141.339844 32.269531 C 141.328125 31.179688 140.742188 30.402344 139.933594 30.4375 C 139.769531 30.4375 139.351562 30.589844 139.019531 30.757812 Z M 139.351562 32.390625 C 139.480469 32.523438 139.78125 32.722656 140.011719 32.835938 C 140.253906 32.945312 140.453125 33.101562 140.453125 33.191406 C 140.453125 33.589844 139.558594 35.175781 139.019531 35.722656 C 138.386719 36.355469 137.546875 36.742188 137.28125 36.519531 C 136.828125 36.132812 137.539062 33.480469 138.421875 32.269531 C 138.808594 31.746094 138.832031 31.734375 138.972656 31.933594 C 139.0625 32.046875 139.226562 32.257812 139.351562 32.390625 Z M 139.351562 32.390625 "/>
<path style=" stroke:none;fill-rule:nonzero;fill:rgb(0%,0%,0%);fill-opacity:1;" d="M 101.257812 30.660156 C 99.898438 30.902344 98.683594 32.089844 98.0625 33.824219 C 97.535156 35.289062 97.875 36.519531 98.859375 36.710938 C 99.414062 36.808594 99.953125 36.488281 101.035156 35.398438 L 102 34.421875 L 102 35.035156 C 102 36.1875 102.453125 36.753906 103.203125 36.53125 C 103.855469 36.34375 105.3125 35.175781 106.339844 34 C 106.738281 33.546875 106.859375 33.335938 106.839844 33.089844 C 106.828125 32.902344 106.78125 32.757812 106.738281 32.757812 C 106.695312 32.757812 106.460938 33.023438 106.207031 33.355469 C 105.644531 34.121094 104.132812 35.464844 103.5 35.777344 C 102.726562 36.15625 102.617188 36.03125 102.707031 34.945312 C 102.738281 34.445312 102.847656 33.757812 102.9375 33.421875 C 103.027344 33.089844 103.101562 32.777344 103.101562 32.734375 C 103.101562 32.613281 102.761719 32.3125 102.617188 32.3125 C 102.539062 32.3125 102.128906 32.769531 101.722656 33.324219 C 100.78125 34.589844 99.742188 35.632812 99.082031 36.011719 C 98.460938 36.355469 98.40625 36.289062 98.496094 35.300781 C 98.539062 34.84375 98.695312 34.34375 98.992188 33.722656 C 99.867188 31.867188 101.390625 30.890625 102.894531 31.214844 C 103.414062 31.324219 103.480469 31.378906 103.667969 31.824219 C 103.867188 32.257812 104.296875 32.710938 104.40625 32.589844 C 104.429688 32.566406 104.394531 32.378906 104.320312 32.15625 C 104.199219 31.78125 103.578125 31.125 103.101562 30.871094 C 102.738281 30.679688 101.800781 30.570312 101.257812 30.660156 Z M 101.257812 30.660156 "/>
</g>
</svg>
