<?xml version="1.0" standalone="no"?>
<!DOCTYPE svg PUBLIC "-//W3C//DTD SVG 20010904//EN"
 "http://www.w3.org/TR/2001/REC-SVG-20010904/DTD/svg10.dtd">
<svg version="1.0" xmlns="http://www.w3.org/2000/svg"
 width="1656.000000pt" height="630.000000pt" viewBox="0 0 1656.000000 630.000000"
 preserveAspectRatio="xMidYMid meet">
<metadata>
Created by potrace 1.16, written by Peter Selinger 2001-2019
</metadata>
<g transform="translate(0.000000,630.000000) scale(0.100000,-0.100000)"
fill="#000000" stroke="none">
<path d="M4350 5361 c-185 -57 -366 -351 -440 -716 -19 -93 -17 -259 5 -333
22 -78 77 -144 140 -168 74 -28 76 -1 3 34 -58 27 -74 48 -93 117 -63 244 103
753 308 942 69 63 120 86 183 81 104 -9 160 -83 171 -227 31 -400 -264 -1284
-894 -2680 -13 -30 -37 -72 -52 -95 -32 -46 -76 -131 -85 -161 -3 -11 -1 -27
4 -35 15 -23 70 43 218 265 201 300 270 415 634 1055 55 96 117 204 138 240
21 36 95 164 165 285 253 435 439 724 581 901 159 198 266 250 315 154 22 -43
39 -164 39 -273 0 -250 -78 -852 -199 -1552 -27 -156 -28 -171 -14 -187 9 -10
23 -18 32 -18 9 0 45 42 80 93 548 783 1054 1362 1274 1456 57 25 114 27 142
5 17 -13 20 -26 19 -102 -2 -137 -47 -312 -239 -927 -156 -501 -211 -717 -241
-950 -29 -222 3 -392 89 -484 30 -32 117 -81 144 -81 28 0 -3 33 -51 54 -101
46 -127 100 -134 272 -8 227 69 580 248 1139 168 523 223 746 224 915 1 110
-22 173 -73 203 -173 102 -598 -295 -1264 -1181 -105 -140 -167 -215 -167
-201 0 11 9 71 20 132 53 301 113 786 131 1057 19 278 -1 542 -48 635 -130
257 -380 -7 -975 -1030 -80 -137 -264 -455 -408 -705 -145 -250 -269 -464
-276 -475 -22 -31 -17 -9 15 63 289 665 532 1383 611 1812 27 145 37 377 20
451 -26 113 -80 178 -174 211 -55 19 -86 21 -126 9z"/>
<path d="M8423 4741 c-99 -83 -383 -723 -575 -1296 l-43 -129 -90 -91 c-97
-99 -186 -165 -222 -165 -40 0 -42 51 -6 224 16 76 16 79 -2 92 -10 8 -24 14
-30 14 -6 0 -40 -39 -75 -87 -36 -49 -94 -117 -130 -154 -62 -62 -152 -123
-164 -111 -11 11 -6 89 10 143 54 181 192 311 331 311 83 0 110 -13 133 -66
20 -47 60 -81 60 -51 0 45 -72 124 -136 151 -54 23 -161 18 -220 -10 -136 -63
-265 -287 -240 -418 9 -50 49 -96 91 -104 51 -9 100 20 198 118 l87 88 0 -50
c0 -63 26 -129 56 -140 48 -18 105 12 240 126 76 65 74 75 24 -111 -22 -83
-33 -152 -37 -225 -5 -102 -5 -107 19 -134 21 -25 28 -28 59 -21 56 12 195
163 339 368 124 175 125 177 128 140 18 -238 39 -323 79 -323 7 0 33 26 57 58
235 306 460 599 469 610 7 9 5 18 -8 32 -23 26 -34 25 -44 -3 -29 -75 -212
-309 -395 -505 -56 -60 -78 -78 -82 -67 -4 9 -4 104 -1 213 5 210 18 283 58
323 25 25 19 46 -17 55 -21 6 -31 2 -46 -15 -20 -25 -48 -111 -48 -148 0 -53
-475 -708 -514 -708 -16 0 -9 91 15 200 38 170 126 459 219 715 207 568 420
1028 512 1105 29 25 30 26 13 45 -22 25 -43 25 -72 1z"/>
<path d="M12165 4463 c-30 -81 -178 -427 -260 -608 -37 -83 -185 -378 -196
-391 -6 -8 -25 -7 -65 3 -117 30 -185 -9 -329 -192 -68 -86 -138 -156 -201
-201 -76 -54 -96 -57 -88 -11 14 85 31 142 76 262 79 208 76 194 48 217 l-25
20 -22 -28 c-236 -306 -396 -468 -484 -489 -23 -6 -27 -3 -33 26 -23 115 79
419 141 419 14 0 14 3 -2 20 -58 65 -135 -29 -180 -220 -25 -106 -28 -156 -11
-213 18 -62 47 -87 98 -87 64 1 118 37 246 166 83 83 123 117 119 102 -39
-171 -41 -200 -12 -245 9 -13 28 -28 42 -34 53 -20 109 7 209 104 l51 49 5
-46 c10 -86 69 -137 133 -116 63 21 204 196 305 378 13 23 27 42 32 42 4 0 8
6 8 13 -1 12 142 298 147 294 1 -1 -16 -65 -38 -142 -101 -351 -169 -705 -169
-875 0 -87 23 -165 56 -186 32 -22 43 -10 17 19 -35 38 -46 92 -40 196 17 268
155 771 431 1564 67 194 70 216 30 231 -8 3 -17 6 -18 6 -2 0 -11 -21 -21 -47z
m-497 -1042 c14 -9 -28 -86 -120 -224 -67 -99 -174 -195 -195 -174 -12 13 20
157 47 214 41 83 110 158 163 176 48 18 86 20 105 8z"/>
<path d="M10753 4377 c-38 -44 -90 -129 -144 -239 l-43 -87 -90 -21 c-118 -28
-243 -76 -329 -124 -88 -49 -79 -70 15 -33 87 35 169 62 262 86 92 24 110 26
103 9 -70 -163 -145 -345 -192 -465 -34 -89 -64 -153 -71 -153 -14 0 -134 -99
-221 -184 -51 -48 -53 -49 -68 -31 -39 51 -47 78 -43 144 8 114 89 231 189
276 39 18 40 18 62 -3 28 -27 47 -28 47 -4 -1 22 -18 44 -52 66 -74 48 -235
-69 -287 -209 -38 -101 -19 -199 51 -272 l31 -32 -49 -57 c-119 -137 -184
-239 -184 -289 0 -30 41 -75 67 -75 104 1 331 225 308 302 -4 13 -21 38 -39
56 l-31 34 90 83 c50 46 91 82 93 80 2 -2 -28 -99 -66 -217 -100 -303 -153
-530 -155 -660 -1 -58 2 -71 23 -93 13 -14 26 -25 29 -25 3 0 6 39 7 88 1 64
10 126 37 232 39 161 123 441 167 559 16 42 45 123 65 181 41 115 157 410 200
505 95 212 82 193 134 199 51 6 104 8 168 7 36 -1 42 -5 51 -30 6 -16 20 -34
31 -40 42 -23 31 27 -16 71 -35 33 -139 62 -200 55 -25 -3 -43 0 -43 6 0 14
86 172 121 224 17 24 42 49 56 56 l26 14 -22 22 c-30 30 -54 26 -88 -12z
m-703 -1382 c0 -55 -91 -155 -207 -229 -27 -16 -43 -22 -43 -14 1 21 80 132
155 217 75 85 95 90 95 26z"/>
<path d="M12580 3530 c-65 -34 -115 -87 -159 -169 -31 -59 -149 -179 -291
-295 -58 -46 -167 -116 -183 -116 -19 0 5 89 68 245 98 248 112 307 77 338
-30 27 -38 20 -49 -40 -6 -32 -43 -141 -83 -243 -85 -217 -97 -285 -60 -325
19 -20 33 -25 70 -25 40 0 59 8 121 48 41 27 115 85 165 129 l91 81 6 -65 c4
-56 9 -69 37 -98 107 -110 301 27 380 268 9 28 16 36 28 33 45 -14 156 -26
164 -18 21 21 -4 40 -65 46 -109 12 -107 11 -107 70 -1 98 -54 168 -127 165
-15 0 -53 -14 -83 -29z m30 -147 c12 -12 39 -30 60 -40 22 -10 40 -24 40 -32
0 -36 -81 -179 -130 -228 -57 -57 -133 -92 -157 -72 -41 35 23 274 103 383 35
47 37 48 50 30 8 -10 23 -29 34 -41z"/>
<path d="M9163 3539 c-123 -22 -233 -129 -289 -285 -48 -132 -17 -243 72 -260
50 -9 99 20 197 118 l87 88 0 -55 c0 -104 41 -155 109 -135 59 17 191 122 284
228 36 41 47 60 45 82 -1 17 -5 30 -9 30 -4 0 -25 -24 -48 -54 -51 -69 -188
-190 -245 -218 -70 -34 -80 -23 -72 75 3 45 13 107 21 137 8 30 15 58 15 62 0
11 -31 38 -44 38 -7 0 -44 -41 -81 -91 -85 -114 -179 -208 -239 -242 -56 -31
-61 -25 -53 64 4 41 18 86 45 142 79 167 217 255 353 226 47 -10 53 -15 70
-55 18 -39 57 -80 67 -69 2 2 -1 19 -8 39 -11 34 -67 93 -110 116 -33 17 -118
27 -167 19z"/>
</g>
</svg>
