<svg xmlns="http://www.w3.org/2000/svg" width="209" height="50.011" viewBox="0 0 209 50.011"><defs><style>.a{fill:#fff;}</style></defs><g transform="translate(-14.058 -14.591)"><g transform="translate(70.376 22.498)"><path class="a" d="M166.414,52.057v4.049h-11.5a7.043,7.043,0,0,1-3.174-.745,7.182,7.182,0,0,1-3.271-3.3,7.039,7.039,0,0,1-.745-3.174V33.433h4.049V49.271a3.229,3.229,0,0,0,2.753,2.753Z" transform="translate(-147.726 -33.401)"/><path class="a" d="M219.9,56.029h-4.534l-2.073-4.049-4.956-9.717-4.955,9.717-2.073,4.049h-4.535l2.073-4.049,9.49-18.623,9.49,18.623Z" transform="translate(-176.107 -33.357)"/><path class="a" d="M278.944,33.357V56.029H274.9V41.584l-3.984,3.044-3.3,2.559-3.3-2.559-3.984-3.044V56.029h-4.049V33.357l4.049,3.109,7.287,5.6,7.288-5.6Z" transform="translate(-210.539 -33.357)"/><path class="a" d="M317.772,56.029V33.357h4.049V56.029Z" transform="translate(-246.127 -33.357)"/><path class="a" d="M357.74,33.389V56.061l-4.049-3.109L339.117,41.713V56.061h-4.049V33.454l4.049,3.109L353.692,47.8V33.357Z" transform="translate(-256.136 -33.357)"/><path class="a" d="M400.662,39.478v2.106h14.575v4.049H400.662v4.275a2.088,2.088,0,0,0,2.073,2.073h16.551v4.049H402.735a6.11,6.11,0,0,1-6.089-6.121V39.478a6.109,6.109,0,0,1,6.089-6.121h16.551v4.049H402.735A2.087,2.087,0,0,0,400.662,39.478Z" transform="translate(-291.77 -33.357)"/><path class="a" d="M456.146,56.105h.065l-.065.065Zm22.737-22.672L470.106,44.8l8.745,11.3h-5.117l-6.186-8-6.186,8h-5.117l8.713-11.3-8.777-11.369H461.3l6.219,8.065,6.219-8.065h5.15Zm-.065,22.737-.032-.065h.032Z" transform="translate(-326.201 -33.401)"/></g><g transform="translate(70.376 50.591)"><path class="a" d="M152.646,102.765a1.306,1.306,0,0,0-.463-.952,1.909,1.909,0,0,0-1.189-.313,2.019,2.019,0,0,0-1.114.251.819.819,0,0,0-.375.726.779.779,0,0,0,.294.639,2.668,2.668,0,0,0,1,.413q.714.176,1.358.345a6.761,6.761,0,0,1,1.108.382,3.414,3.414,0,0,1,.513.288,1.718,1.718,0,0,1,.413.4,1.867,1.867,0,0,1,.275.563,2.6,2.6,0,0,1,.1.764,2.65,2.65,0,0,1-.244,1.183,2.222,2.222,0,0,1-.689.82,3.032,3.032,0,0,1-1.052.482,5.33,5.33,0,0,1-1.333.157,5.513,5.513,0,0,1-1.415-.169,3.124,3.124,0,0,1-1.1-.519,2.48,2.48,0,0,1-.726-.87,2.782,2.782,0,0,1-.275-1.221H149.4a1.256,1.256,0,0,0,.519,1.008,2.178,2.178,0,0,0,1.333.37,2,2,0,0,0,1.2-.307,1.014,1.014,0,0,0,.419-.87.959.959,0,0,0-.056-.338.74.74,0,0,0-.2-.282,1.386,1.386,0,0,0-.394-.238,3.817,3.817,0,0,0-.639-.194q-.777-.176-1.309-.307a5.51,5.51,0,0,1-.97-.332,2.528,2.528,0,0,1-1.033-.782,2.087,2.087,0,0,1-.357-1.271,2.759,2.759,0,0,1,.188-1.033,2.112,2.112,0,0,1,.57-.807,2.677,2.677,0,0,1,.952-.526,4.253,4.253,0,0,1,1.333-.188,4.523,4.523,0,0,1,1.4.2,2.969,2.969,0,0,1,1.033.563,2.552,2.552,0,0,1,.651.864,2.892,2.892,0,0,1,.257,1.1Z" transform="translate(-147.726 -100.035)"/><path class="a" d="M166.35,109.082a1.757,1.757,0,0,0,.407,1.114,1.238,1.238,0,0,0,.97.413,1.361,1.361,0,0,0,.707-.181.822.822,0,0,0,.394-.507h1.677a2.7,2.7,0,0,1-1,1.465,2.836,2.836,0,0,1-1.7.514q-3.08,0-3.08-3.355a3.9,3.9,0,0,1,.2-1.29,2.776,2.776,0,0,1,.582-.989,2.516,2.516,0,0,1,.933-.632,3.408,3.408,0,0,1,1.264-.219,2.6,2.6,0,0,1,2.16.914,4.35,4.35,0,0,1,.732,2.754Zm2.567-1.026a1.726,1.726,0,0,0-.119-.594,1.249,1.249,0,0,0-.282-.426,1.122,1.122,0,0,0-.4-.25,1.354,1.354,0,0,0-.463-.081,1.155,1.155,0,0,0-.845.357,1.523,1.523,0,0,0-.407,1Z" transform="translate(-157.561 -103.148)"/><path class="a" d="M180,111.736v-6.16h1.527v.739a1.992,1.992,0,0,1,.419-.488,1.811,1.811,0,0,1,.451-.269,1.739,1.739,0,0,1,.469-.119,4.622,4.622,0,0,1,.488-.025h.213v1.665a2.752,2.752,0,0,0-.45-.037,1.317,1.317,0,0,0-1.49,1.49v3.205Z" transform="translate(-166.4 -103.148)"/><path class="a" d="M191.054,111.96l-2.2-6.16h1.815l1.29,4.069,1.3-4.069h1.715l-2.216,6.16Z" transform="translate(-171.524 -103.371)"/><path class="a" d="M204.51,101.966v-1.515h1.628v1.515Zm0,6.9V102.7h1.628v6.16Z" transform="translate(-180.585 -100.276)"/><path class="a" d="M215.517,109.508a2.609,2.609,0,0,1-.307.976,2.64,2.64,0,0,1-.62.752,2.847,2.847,0,0,1-.857.488,3.244,3.244,0,0,1-2.191-.031,2.362,2.362,0,0,1-.9-.627,2.909,2.909,0,0,1-.582-1.039,4.564,4.564,0,0,1-.207-1.446,4.389,4.389,0,0,1,.207-1.427,2.566,2.566,0,0,1,.582-.983,2.345,2.345,0,0,1,.908-.57,3.538,3.538,0,0,1,1.183-.188,3.492,3.492,0,0,1,1.1.163,2.564,2.564,0,0,1,.864.476,2.282,2.282,0,0,1,.582.751,2.631,2.631,0,0,1,.25.977h-1.64a1.127,1.127,0,0,0-.382-.745,1.172,1.172,0,0,0-.782-.269,1.342,1.342,0,0,0-.488.088.949.949,0,0,0-.394.295,1.542,1.542,0,0,0-.269.551,3.075,3.075,0,0,0-.1.845,2.522,2.522,0,0,0,.363,1.5,1.039,1.039,0,0,0,.839.489,1.287,1.287,0,0,0,.814-.263,1.051,1.051,0,0,0,.388-.764Z" transform="translate(-183.68 -103.148)"/><path class="a" d="M224.508,101.966v-1.515h1.628v1.515Zm0,6.9V102.7h1.628v6.16Z" transform="translate(-192.158 -100.276)"/><path class="a" d="M232.964,111.9a3.541,3.541,0,0,1-1.339-.238,2.744,2.744,0,0,1-1.615-1.69,3.912,3.912,0,0,1-.213-1.315,3.858,3.858,0,0,1,.219-1.328,2.858,2.858,0,0,1,.632-1.026,2.821,2.821,0,0,1,1-.657,3.555,3.555,0,0,1,1.321-.232,3.471,3.471,0,0,1,1.3.232,2.75,2.75,0,0,1,1.609,1.671,3.9,3.9,0,0,1,.219,1.34,3.84,3.84,0,0,1-.219,1.333,2.913,2.913,0,0,1-.626,1.02,2.759,2.759,0,0,1-.989.657A3.483,3.483,0,0,1,232.964,111.9Zm0-1.365q1.49,0,1.49-1.878t-1.49-1.866q-1.49,0-1.49,1.866T232.964,110.535Z" transform="translate(-195.218 -103.148)"/><path class="a" d="M249.553,107.442a.869.869,0,0,0-.326-.632,1.478,1.478,0,0,0-.826-.182,1.717,1.717,0,0,0-.714.119.407.407,0,0,0-.25.395.458.458,0,0,0,.25.419,3.346,3.346,0,0,0,.752.282q.525.15,1,.269a7.517,7.517,0,0,1,.839.257,1.758,1.758,0,0,1,.751.544,1.525,1.525,0,0,1,.263.945,1.806,1.806,0,0,1-.682,1.5,3.2,3.2,0,0,1-2.009.538,3.448,3.448,0,0,1-2.185-.6,1.951,1.951,0,0,1-.782-1.54h1.678a.776.776,0,0,0,.338.676,1.609,1.609,0,0,0,.939.238,1.873,1.873,0,0,0,.763-.144.5.5,0,0,0,.326-.495.475.475,0,0,0-.294-.463,3.832,3.832,0,0,0-.695-.238q-.777-.188-1.252-.338a3.237,3.237,0,0,1-.8-.363,1.57,1.57,0,0,1-.607-.626,1.737,1.737,0,0,1-.169-.764,1.906,1.906,0,0,1,.138-.726,1.4,1.4,0,0,1,.45-.582,2.312,2.312,0,0,1,.808-.383,4.541,4.541,0,0,1,1.2-.137,3.109,3.109,0,0,1,1.972.513,2.01,2.01,0,0,1,.695,1.515Z" transform="translate(-204.383 -103.148)"/><path class="a" d="M267.325,108.864v-8.413h1.628v8.413Z" transform="translate(-216.935 -100.276)"/><path class="a" d="M276.456,111.736a2.452,2.452,0,0,1-.1-.551,2.015,2.015,0,0,1-.764.52,2.9,2.9,0,0,1-1.1.194,2.207,2.207,0,0,1-1.559-.469,1.608,1.608,0,0,1-.494-1.221,2.234,2.234,0,0,1,.212-1.058,1.588,1.588,0,0,1,.589-.62,2.84,2.84,0,0,1,.9-.332q.519-.106,1.133-.194a2.182,2.182,0,0,0,.827-.232.572.572,0,0,0-.069-.939,1.471,1.471,0,0,0-.758-.169,1.094,1.094,0,0,0-.807.25,1.171,1.171,0,0,0-.307.664h-1.515a2.793,2.793,0,0,1,.157-.876,1.679,1.679,0,0,1,.463-.689,2.17,2.17,0,0,1,.832-.444,4.351,4.351,0,0,1,1.252-.156,4.077,4.077,0,0,1,1.233.163,1.99,1.99,0,0,1,.814.469,1.79,1.79,0,0,1,.445.764,3.574,3.574,0,0,1,.138,1.033v3.893Zm-.113-3.017a.886.886,0,0,1-.363.2,6.626,6.626,0,0,1-.689.162,2.344,2.344,0,0,0-.964.351.744.744,0,0,0-.263.613q0,.689.789.689a1.566,1.566,0,0,0,.582-.107,1.422,1.422,0,0,0,.776-.713,1.179,1.179,0,0,0,.119-.519Z" transform="translate(-219.893 -103.148)"/><path class="a" d="M294.488,111.736v-3.731a1.484,1.484,0,0,0-.263-.914.833.833,0,0,0-.7-.351.906.906,0,0,0-.744.375,1.476,1.476,0,0,0-.295.939v3.681h-1.628V108.03a3.085,3.085,0,0,0-.05-.613.825.825,0,0,0-.169-.375.638.638,0,0,0-.307-.194,1.581,1.581,0,0,0-.45-.056q-.99,0-.989,1.2v3.743h-1.628v-6.16h1.527v.9a1.836,1.836,0,0,1,.751-.839,2.277,2.277,0,0,1,1.052-.225,2.829,2.829,0,0,1,.557.05,1.367,1.367,0,0,1,.438.169,1.775,1.775,0,0,1,.37.307,3.531,3.531,0,0,1,.351.451,1.645,1.645,0,0,1,.663-.745,2.025,2.025,0,0,1,1-.232,2.262,2.262,0,0,1,.852.156,1.925,1.925,0,0,1,.663.438,2.082,2.082,0,0,1,.432.658,2.058,2.058,0,0,1,.157.8v4.269Z" transform="translate(-228.473 -103.148)"/><path class="a" d="M309.758,101.966v-1.515h1.628v1.515Zm0,6.9V102.7h1.628v6.16Z" transform="translate(-241.49 -100.276)"/><path class="a" d="M319.318,111.736v-3.731a1.432,1.432,0,0,0-.238-.964,1.093,1.093,0,0,0-.814-.25q-1.265,0-1.264,1.414v3.531h-1.628v-6.16h1.553v.9a1.978,1.978,0,0,1,.763-.8,2.474,2.474,0,0,1,1.227-.269,2.447,2.447,0,0,1,.814.131,1.721,1.721,0,0,1,.645.394,1.889,1.889,0,0,1,.426.645,2.317,2.317,0,0,1,.156.882v4.269Z" transform="translate(-244.74 -103.148)"/><path class="a" d="M333.954,111.736a2.475,2.475,0,0,1-.1-.551,2.015,2.015,0,0,1-.764.52,2.9,2.9,0,0,1-1.1.194,2.207,2.207,0,0,1-1.559-.469,1.608,1.608,0,0,1-.494-1.221,2.239,2.239,0,0,1,.212-1.058,1.587,1.587,0,0,1,.589-.62,2.84,2.84,0,0,1,.9-.332q.519-.106,1.133-.194a2.181,2.181,0,0,0,.827-.232.572.572,0,0,0-.069-.939,1.471,1.471,0,0,0-.758-.169,1.094,1.094,0,0,0-.807.25,1.173,1.173,0,0,0-.307.664h-1.515a2.793,2.793,0,0,1,.157-.876,1.679,1.679,0,0,1,.463-.689,2.17,2.17,0,0,1,.832-.444,4.351,4.351,0,0,1,1.252-.156,4.077,4.077,0,0,1,1.233.163,2,2,0,0,1,.814.469,1.793,1.793,0,0,1,.444.764,3.573,3.573,0,0,1,.138,1.033v3.893Zm-.113-3.017a.886.886,0,0,1-.363.2,6.626,6.626,0,0,1-.689.162,2.344,2.344,0,0,0-.964.351.744.744,0,0,0-.263.613q0,.689.789.689a1.565,1.565,0,0,0,.582-.107,1.422,1.422,0,0,0,.776-.713,1.179,1.179,0,0,0,.119-.519Z" transform="translate(-253.166 -103.148)"/><path class="a" d="M348.859,108.864l-.013-.751a1.878,1.878,0,0,1-1.715.914,2.542,2.542,0,0,1-1.077-.225,2.356,2.356,0,0,1-.838-.651,3.149,3.149,0,0,1-.551-1.039,4.465,4.465,0,0,1-.2-1.39,4.6,4.6,0,0,1,.169-1.283,3.016,3.016,0,0,1,.495-1.008,2.235,2.235,0,0,1,.8-.657,2.39,2.39,0,0,1,1.07-.232,2.142,2.142,0,0,1,1.828.964v-3.055h1.6v8.413Zm-1.352-1.165a1.214,1.214,0,0,0,.983-.488,1.97,1.97,0,0,0,.394-1.277q0-2-1.365-2-1.4,0-1.4,1.9a2.187,2.187,0,0,0,.388,1.346A1.2,1.2,0,0,0,347.507,107.7Z" transform="translate(-261.574 -100.276)"/><path class="a" d="M363.143,111.9a3.547,3.547,0,0,1-1.34-.238,2.745,2.745,0,0,1-1.615-1.69,3.923,3.923,0,0,1-.213-1.315,3.848,3.848,0,0,1,.219-1.328,2.859,2.859,0,0,1,.632-1.026,2.818,2.818,0,0,1,1-.657,3.553,3.553,0,0,1,1.321-.232,3.467,3.467,0,0,1,1.3.232,2.747,2.747,0,0,1,1.609,1.671,3.886,3.886,0,0,1,.22,1.34,3.83,3.83,0,0,1-.22,1.333,2.906,2.906,0,0,1-.626,1.02,2.764,2.764,0,0,1-.989.657A3.481,3.481,0,0,1,363.143,111.9Zm0-1.365q1.49,0,1.49-1.878t-1.49-1.866q-1.49,0-1.49,1.866T363.143,110.535Z" transform="translate(-270.549 -103.148)"/><path class="a" d="M379.732,107.442a.868.868,0,0,0-.325-.632,1.48,1.48,0,0,0-.827-.182,1.715,1.715,0,0,0-.713.119.407.407,0,0,0-.25.395.457.457,0,0,0,.25.419,3.341,3.341,0,0,0,.751.282q.526.15,1,.269a7.519,7.519,0,0,1,.839.257,1.759,1.759,0,0,1,.751.544,1.525,1.525,0,0,1,.263.945,1.806,1.806,0,0,1-.682,1.5,3.2,3.2,0,0,1-2.01.538,3.447,3.447,0,0,1-2.184-.6,1.951,1.951,0,0,1-.783-1.54h1.678a.776.776,0,0,0,.338.676,1.607,1.607,0,0,0,.939.238,1.875,1.875,0,0,0,.764-.144.5.5,0,0,0,.325-.495.475.475,0,0,0-.294-.463,3.838,3.838,0,0,0-.7-.238q-.776-.188-1.251-.338a3.232,3.232,0,0,1-.8-.363,1.573,1.573,0,0,1-.607-.626,1.731,1.731,0,0,1-.169-.764,1.906,1.906,0,0,1,.137-.726,1.4,1.4,0,0,1,.451-.582,2.31,2.31,0,0,1,.807-.383,4.541,4.541,0,0,1,1.2-.137,3.111,3.111,0,0,1,1.972.513,2.01,2.01,0,0,1,.694,1.515Z" transform="translate(-279.714 -103.148)"/></g><g transform="translate(14.058 14.591)"><g transform="translate(0 0)"><path class="a" d="M58.288,48.416H58.6l12.229-31.7c-.285-.085-.57-.169-.859-.244L56.515,49.945Z" transform="translate(-38.627 -15.679)"/><path class="a" d="M130.6,66.845a25.087,25.087,0,0,0-.534-5.151L129,75.651A24.948,24.948,0,0,0,130.6,66.845Z" transform="translate(-80.574 -41.848)"/><path class="a" d="M123.207,68.023l1.3-17.006a24.841,24.841,0,0,0-1.989-4.966l-2.43,19.589Z" transform="translate(-75.413 -32.797)"/><path class="a" d="M73.06,52.437,82.9,19.9a24.817,24.817,0,0,0-2.28-1.054l-10.9,31.12Z" transform="translate(-46.271 -17.051)"/><path class="a" d="M65.223,48.966l10.9-31.138q-.573-.217-1.158-.406L62.8,48.966Z" transform="translate(-42.263 -16.229)"/><path class="a" d="M107.3,58.063l.12,0,3.62-23.178q-.712-.906-1.5-1.744l-5.114,27.11Z" transform="translate(-66.347 -25.327)"/><path class="a" d="M88.806,54.378l.174-.132,5.291-28.051a25.093,25.093,0,0,0-5.636-4.252L78.816,54.41Zm-3.6-2.074a1.094,1.094,0,0,1,.992-.86.653.653,0,0,1,.618.86,1.094,1.094,0,0,1-.992.86A.653.653,0,0,1,85.207,52.3Zm-2.5-.86a.653.653,0,0,1,.619.86,1.094,1.094,0,0,1-.992.86.653.653,0,0,1-.618-.86A1.094,1.094,0,0,1,82.7,51.444Z" transform="translate(-51.532 -18.845)"/><path class="a" d="M115.344,61.282l2.518-20.294a25.072,25.072,0,0,0-1.539-2.351L112.792,61.25Z" transform="translate(-71.193 -28.506)"/><path class="a" d="M55.532,48.919l-3.664,2.789-11.3.035-3.807-2.824H34.3l-3.134,2.7-12.395-.141,19.2-36.866A25.012,25.012,0,1,0,61.182,51.3L58.1,48.951Z" transform="translate(-14.058 -14.605)"/><g transform="translate(7.292)"><path class="a" d="M49.771,14.591,31.365,49.926l9.235.1.5-.428L54.9,15.26A25.027,25.027,0,0,0,49.771,14.591ZM35.91,48.05a1.094,1.094,0,0,1-.992.86.653.653,0,0,1-.618-.86,1.093,1.093,0,0,1,.991-.86A.653.653,0,0,1,35.91,48.05Zm3.5,0a1.094,1.094,0,0,1-.992.86.653.653,0,0,1-.619-.86,1.094,1.094,0,0,1,.991-.86A.653.653,0,0,1,39.405,48.05Z" transform="translate(-31.365 -14.591)"/></g></g></g></g></svg>