<svg xmlns="http://www.w3.org/2000/svg" width="134" height="97" viewBox="0 0 134 97"><defs><style>.a{fill:none;}.b{fill:#fc8813;}</style></defs><g transform="translate(-293 -1245)"><rect class="a" width="134" height="97" transform="translate(293 1245)"/><g transform="translate(296.077 1233.991)"><path class="b" d="M123.417,69.819l-.738-1.215a1.7,1.7,0,0,0-1.238-.8l-1.02-.13a1.735,1.735,0,0,0-.216-.014,1.7,1.7,0,0,0-.9.259l-.6-.195-.8-.427a1.7,1.7,0,0,0-.8-.2,1.8,1.8,0,0,0-.186.01l-1.584.174a1.7,1.7,0,0,0-1,.473l-.46.448-.932.118-3.19.235a1.715,1.715,0,0,0-.772.251l-1.888,1.172a1.7,1.7,0,0,0-.8,1.281l-.347,3.6-.487.424a1.7,1.7,0,0,0-.576,1.106l-.108,1.032-2.3,1.407a1.69,1.69,0,0,0-.489.451c-.048,0-.1-.006-.144-.006s-.1,0-.155.006l-3.1.282a1.7,1.7,0,0,0-.92.376l-.682.556-2.538-.07H94.4a1.7,1.7,0,0,0-.92.27l-.969.624-1.691-1.94a1.7,1.7,0,0,0-1.281-.583h-.066l-.937.036-.707-.7-2.05-3.772a1.7,1.7,0,0,0-.574-.619l-1.683-1.082L82.5,70.222l-.161-.429a1.7,1.7,0,0,0,.009-1.471l-.832-1.762-.386-1.72.383-1.367a1.712,1.712,0,0,0,.048-.689l-.478-3.494-.012-.074-.35-1.922.1-1.143.389-.457a1.707,1.707,0,0,0,.335-.619l.147-.5a1.7,1.7,0,0,0,1.221-.841l.456-.8a1.7,1.7,0,0,0-.57-2.275l-1.476-.933a1.692,1.692,0,0,0-.3-.152l-.5-.188-.366-.439a1.686,1.686,0,0,0-.46-.386l-4.08-2.339-.533-2.413a1.7,1.7,0,0,0-.191-.489L72.03,38.394a1.754,1.754,0,0,0-.24-.321L68.469,34.6a1.664,1.664,0,0,0-.318-.261l-2.67-1.693a1.7,1.7,0,0,0-.911-.264q-.057,0-.113,0l-1.953.13a1.7,1.7,0,0,0-.982.4L60,34.193a1.7,1.7,0,0,0-.361.422l-.437.725-.7-.4c-.056-.031-.114-.06-.174-.086l-2.309-.971-.586-.784L55.3,31.63a1.692,1.692,0,0,0-.437-.994l-1.78-1.953c-.039-.043-.081-.083-.123-.122l-1.845-1.65L51.1,26.9l-1.715-1.5a1.689,1.689,0,0,0-.143-.112l-2.105-1.476a1.7,1.7,0,0,0-.976-.308h-6.6a1.7,1.7,0,0,0-1.7,1.7v.036H29.05L15.4,19.947a1.7,1.7,0,0,0-1.775-.919l-8.26,1.255a1.7,1.7,0,0,0-1.324,2.308l3.589,9.045a1.7,1.7,0,0,0,.82.894l.6.3.453,1.762a1.7,1.7,0,0,0,.368.7l4.38,5.005h-1.09a1.7,1.7,0,0,0-1.42,2.634l1.652,2.513a1.693,1.693,0,0,0,.582.544l4.81,2.727,2.06,1.158,1.83,2.034-.483,2.469A1.7,1.7,0,0,0,22.771,56l6.608,5.519L30.3,64.1a1.7,1.7,0,0,0,1.6,1.128,1.672,1.672,0,0,0,.365-.04l2.943-.646a1.7,1.7,0,0,0,1.307-1.97l-.359-1.939a1.7,1.7,0,0,0-.35-.759L33.079,56.5a1.691,1.691,0,0,0-.764-.537L31.3,55.612l-4.5-8.593a1.427,1.427,0,0,0-.092-.155L23.57,42.156l-.244-2.416a1.693,1.693,0,0,0-.39-.921l-4.879-5.814a1.51,1.51,0,0,0-.116-.125l-2.158-2.1.155-2.006c0-.056.005-.112.005-.168l-.032-1.48.838.331,2.114,2.9,1.84,2.518.641,2.816a1.7,1.7,0,0,0,.312.661l3.876,5.025a1.7,1.7,0,0,0,.387.365l2.969,2.03.353,1.541a1.7,1.7,0,0,0,.6.954l3.317,2.622-.016.029a1.7,1.7,0,0,0-.061,1.529L33.8,52.03a1.688,1.688,0,0,0,.4.552l1.652,1.507a1.711,1.711,0,0,0,.231.178l2.588,1.653v.647a1.7,1.7,0,0,0,.5,1.2l6.1,6.1L48.2,66.8l.972,3.242L48.05,72.232a1.685,1.685,0,0,0-.091.211l-.43,1.22a1.7,1.7,0,0,0,.188,1.509l1.866,2.8a1.732,1.732,0,0,0,.431.444l5.069,3.59,1.347,1.28a1.7,1.7,0,0,0,.681.4l5.959,1.793,5.937,3.952a1.7,1.7,0,0,0,.525.233L75.3,91.116l5.421,2.85a1.711,1.711,0,0,0,.622.187l4.308.43c.056.005.113.008.169.008a1.7,1.7,0,0,0,.921-.272l2.63-1.694,2.3.524,2.717,1.2,3.72,3.112,1.681,1.611a1.7,1.7,0,0,0,2.876-1.227V94.489l1-1.476h1.323a1.691,1.691,0,0,0,.442-.058l1.866-.5a1.7,1.7,0,0,0,1.258-1.641v-.787a1.7,1.7,0,0,0-.126-.643l-.516-1.262a1.69,1.69,0,0,0-.318-.5l-.7-.767a1.72,1.72,0,0,0,.222-.5l2.352-.073,2.4.126.09,0a1.694,1.694,0,0,0,1.029-.347l.823-.626,1.055-.437a1.7,1.7,0,0,0,.808-.7l.448-.747a1.72,1.72,0,0,0,1.562,1.008c.882,0,1.4-.576,2.247-1.592a1.7,1.7,0,0,0,.392-1.086v-1.65l.325-1.138a1.7,1.7,0,0,0-.2-1.383,1.7,1.7,0,0,0,.138-.669v-.353l1.214-2.391,1.371-1.371a1.7,1.7,0,0,0,.5-1.2V70.7A1.687,1.687,0,0,0,123.417,69.819Zm-1.453,1.9L120.4,73.284l-1.519,3v.76l-.564,1.3.7.282-.391,1.367v1.888s-.811.977-.938.977c-.01,0-.017-.006-.017-.022,0-.195-1.064-2.279-1.064-2.279l-.651,1.107-.89.347-.846,1.411-1.259.521-1,.76-2.474-.13-3.494.109-.673.217.152,1.02-.7.347-.282.478,1.845,2.019.516,1.262v.79l-1.866.5h-2.226l-1.794,2.656v3.876L99.244,96.2,95.3,92.9l-3.087-1.364-3.159-.717L85.819,92.9l-4.308-.43-5.6-2.943-5.959-1.507-6.146-4.092-6.2-1.866L56.17,80.692,51,77.031l-1.866-2.8.43-1.22L51,70.21,49.709,65.9l-3.23-3.23-6.1-6.1V54.991L37,52.838l-1.652-1.507-.717-1.579.717-1.292L30.9,44.943l-.5-2.19L26.88,40.348,23,35.323l-.717-3.159-2.047-2.8-2.405-3.3-3.087-1.22-.574.5.071,3.3-.216,2.8L16.756,34.1l4.882,5.815.287,2.835L25.3,47.814,30.11,57l1.652.574,2.727,3.375.359,1.939-2.943.646-1.077-3.015-6.964-5.815.646-3.3-2.585-2.872-2.3-1.292-4.81-2.727L13.166,42h3.518V40.495l-5.528-6.318-.646-2.513-1.292-.646L5.629,21.973l8.26-1.255.239.564,14.608,5.665H39.568V25.211h6.6l2.105,1.476,1.715,1.5,1.845,1.65,1.78,1.953.174,1.953,1.15,1.541,2.735,1.15,1.042.586,1.237.391L61.1,35.5l1.519-1.281,1.953-.13,2.67,1.693,3.321,3.473,2.865,4.927.7,3.147,4.732,2.713.651.781.912.347L81.9,52.1l-.456.8-1.064.152L79.921,54.6l-.738.868-.174,1.91.391,2.149.478,3.494-.5,1.78.521,2.322.912,1.932-.738-.456.847,2.257,1.237,2.952,2.127,1.367,2.17,3.994,1.411,1.389,1.671-.065,2.214,2.539.76.3L94.4,82.123l3.169.087,1.172-.955,3.1-.282.868.868,1.932-.326-1.346-.738.065-.5,3.017-1.845.195-1.867,1-.868.412-4.276,1.888-1.172,3.234-.239,1.541-.195.868-.847,1.584-.174.933.5,1.888.608.282-.543,1.02.13.738,1.215v1.019Z"/></g></g></svg>