<svg xmlns="http://www.w3.org/2000/svg" width="79" height="79" viewBox="0 0 79 79"><defs><style>.a{fill:#fc8813;}.b{fill:#fff;}</style></defs><g transform="translate(-137 -1011)"><circle class="a" cx="39.5" cy="39.5" r="39.5" transform="translate(137 1011)"/><g transform="translate(156 1030)"><g transform="translate(0 0)"><path class="b" d="M46.034,8.695H43.256a.7.7,0,0,0-.695.695v.695h-.695V8.695A.7.7,0,0,0,41.172,8H18.251a.7.7,0,0,0-.695.695v.695H15.473a.7.7,0,0,0-.695.695v.347l-2.5,1.875a.695.695,0,0,0,0,1.111l2.5,1.875v.347a.7.7,0,0,0,.695.695h2.084v.695a.7.7,0,0,0,.695.695v4.167H15.473a.7.7,0,0,0-.652.457l-2.778,7.64a.7.7,0,0,0-.042.238V44.812a.7.7,0,0,0,.695.695H27.975a.7.7,0,0,0,.695-.695V30.226a.694.694,0,0,0-.042-.238l-2.778-7.64a.7.7,0,0,0-.652-.457H22.419V17.724h7.159l1.87,4.988v5.267l-.625,1.243a.695.695,0,0,0,1.243.621l.695-1.389a.7.7,0,0,0,.076-.31V22.586a.7.7,0,0,0-.044-.244l-1.732-4.618H32.42l7.442,14.214a.7.7,0,0,0,.615.372h2.084v2.084a1.389,1.389,0,0,1-1.389,1.389H35.616a2.778,2.778,0,1,0,0,5.557h6.946a1.389,1.389,0,0,1,1.389,1.389v2.084a.695.695,0,0,0,1.389,0V42.729a2.778,2.778,0,0,0-2.778-2.778H35.616a1.389,1.389,0,0,1,0-2.778h5.557a2.778,2.778,0,0,0,2.778-2.778V32.31h2.084a.7.7,0,0,0,.695-.695v-7.64a.7.7,0,0,0-.094-.347l-4.768-8.176v-1.2h.695v.695a.7.7,0,0,0,.695.695h2.778a.7.7,0,0,0,.695-.695V9.389A.7.7,0,0,0,46.034,8.695Zm-27.088.695h13.2v6.946h-13.2Zm-5.093,3.473.926-.695v1.389Zm2.315,2.084V10.778h1.389v4.167ZM27.281,32.31H13.389V30.921H27.281ZM13.389,44.118V33.7H27.281V44.118ZM26.983,29.532h-13.3l2.273-6.251h8.752Zm-5.954-7.64H19.64V17.724h1.389Zm19.865,9.029L33.532,16.859V9.389h6.946V15.64a.7.7,0,0,0,.094.347l.606,1.042H37.7a.695.695,0,1,0,0,1.389h4.167a.632.632,0,0,0,.109-.022l.823,1.411h-4.4a.695.695,0,0,0,0,1.389h4.862a.685.685,0,0,0,.307-.079l.856,1.468H39.088a.695.695,0,0,0,0,1.389H45.23l.11.188v1.2H40.478a.695.695,0,1,0,0,1.389H45.34v1.389H41.867a.695.695,0,1,0,0,1.389H45.34v1.389Zm.972-18.059V11.473h.695v1.389Zm3.473,1.389H43.95V10.084H45.34Z" transform="translate(-5.054 -3.833)"/><path class="b" d="M9.371,7.353a.695.695,0,1,0,.982-.982L6.186,2.2a.695.695,0,1,0-.982.982Z" transform="translate(-2.916 -2)"/><path class="b" d="M2.695,15.389H6.862a.695.695,0,1,0,0-1.389H2.695a.695.695,0,1,0,0,1.389Z" transform="translate(-2 -5.665)"/><path class="b" d="M10.353,19.2a.7.7,0,0,0-.982,0L5.2,23.371a.695.695,0,1,0,.982.982l4.167-4.168a.7.7,0,0,0,0-.982Z" transform="translate(-2.916 -7.192)"/></g></g></g></svg>