<svg xmlns="http://www.w3.org/2000/svg" width="79" height="79" viewBox="0 0 79 79"><defs><style>.a{fill:#fc8813;}.b{fill:#fff;}</style></defs><g transform="translate(-129 -811)"><g transform="translate(-8 39)"><circle class="a" cx="39.5" cy="39.5" r="39.5" transform="translate(137 772)"/></g><g transform="translate(139 828)"><path class="b" d="M11.409,113.61h8.348a5.359,5.359,0,0,1,5.289-4.542h4.2a3.91,3.91,0,0,1,3.83-3.148H57.967a9.072,9.072,0,0,1,9.062,9.062v2.077a9.072,9.072,0,0,1-9.062,9.062H55.816c-.19.05-.554.224-.844,1.02-1.214,3.336.734,11.546,3.565,15.36h1.071a1.091,1.091,0,0,1,1.091,1.091v6.057a1.091,1.091,0,0,1-1.091,1.091H38.992a1.091,1.091,0,0,1-1.091-1.091v-6.057a1.091,1.091,0,0,1,1.091-1.091h3.5c1.014-1.634,1.39-4.572.956-7.7a19.488,19.488,0,0,0-.433-2.19H38.171a1.091,1.091,0,0,1-1.091-1.091v-5.4h-4a3.91,3.91,0,0,1-3.83-3.149h-4.2a5.358,5.358,0,0,1-5.289-4.542H11.41a2.41,2.41,0,0,1,0-4.819Zm53.438,3.448v-2.077a6.893,6.893,0,0,0-5.065-6.637c.01.025.019.051.029.076s.021.052.03.079.022.065.033.1.018.054.027.081.019.066.028.1.016.055.023.083.016.068.024.1.013.056.019.084.013.071.019.106.01.055.015.083.01.075.015.113.007.053.01.079c0,.043.007.087.01.131,0,.022,0,.043,0,.065q0,.1.005.2v12.393q0,.1-.005.2c0,.022,0,.044,0,.066,0,.043-.006.087-.01.129,0,.027-.007.053-.01.08s-.009.075-.015.113-.01.056-.015.084-.012.071-.019.106-.013.057-.019.086-.015.067-.023.1-.016.057-.024.086-.018.065-.027.1-.019.057-.028.086-.02.062-.031.093-.022.057-.033.086-.017.047-.027.071A6.893,6.893,0,0,0,64.847,117.058Zm-24.765,31.5H58.517v-3.875H40.082ZM55.935,142.5a27.083,27.083,0,0,1-2.743-7.062c-.908-3.724-1.006-7.02-.27-9.044q.052-.142.108-.274H42.462l.043.063q.113.16.222.323l.073.112q.1.154.2.311l.091.15c.055.092.11.185.164.279q.059.1.116.207c.041.075.082.15.123.225q.075.14.147.282l.077.152q.092.184.18.372l.03.064a20.636,20.636,0,0,1,1.682,5.837,15.944,15.944,0,0,1-.68,8H55.935ZM39.262,130.426h3.044a13.193,13.193,0,0,0-2.576-4.2l-.037-.039-.065-.066h-.365v4.306Zm-7.908-8.21a1.725,1.725,0,0,0,1.723,1.723H56.169a1.725,1.725,0,0,0,1.723-1.723V109.823a1.725,1.725,0,0,0-1.723-1.723H33.076a1.724,1.724,0,0,0-1.723,1.723v12.393Zm-2.182-10.967H26.137v1.726h1.517a1.091,1.091,0,0,1,0,2.182H26.137v1.726h1.517a1.091,1.091,0,0,1,0,2.182H26.137v1.726h3.035Zm-7.294,6.372a3.174,3.174,0,0,0,2.078,2.975v-9.154a3.174,3.174,0,0,0-2.078,2.975v3.2Zm-10.469-1.374H19.7v-.456H11.409a.228.228,0,0,0,0,.456Z" transform="translate(-9 -105.919)"/><path class="b" d="M111.673,144.56h4.659a1.091,1.091,0,1,1,0,2.182h-4.659a1.091,1.091,0,0,1,0-2.182Z" transform="translate(-70.474 -140.345)"/><path class="b" d="M111.673,185.3h4.659a1.091,1.091,0,1,1,0,2.182h-4.659a1.091,1.091,0,0,1,0-2.182Z" transform="translate(-70.474 -176.637)"/><path class="b" d="M111.673,226.03h4.659a1.091,1.091,0,1,1,0,2.182h-4.659a1.091,1.091,0,0,1,0-2.182Z" transform="translate(-70.474 -212.929)"/><path class="b" d="M254.16,144.56h4.659a1.091,1.091,0,1,1,0,2.182H254.16a1.091,1.091,0,1,1,0-2.182Z" transform="translate(-228.503 -140.345)"/><path class="b" d="M254.16,185.3h4.659a1.091,1.091,0,1,1,0,2.182H254.16a1.091,1.091,0,1,1,0-2.182Z" transform="translate(-228.503 -176.637)"/><path class="b" d="M254.16,226.03h4.659a1.091,1.091,0,1,1,0,2.182H254.16a1.091,1.091,0,1,1,0-2.182Z" transform="translate(-228.503 -212.929)"/></g></g></svg>