<svg xmlns="http://www.w3.org/2000/svg" width="79" height="79" viewBox="0 0 79 79"><defs><style>.a{fill:#fc8813;}.b{fill:#fff;}</style></defs><g transform="translate(-137 -853)"><circle class="a" cx="39.5" cy="39.5" r="39.5" transform="translate(137 853)"/><g transform="translate(156 865)"><g transform="translate(0)"><path class="b" d="M2213.433,1245.589c8.859.835,18.517,6.643,18.184,16.6a.734.734,0,0,1-.731.709h-10.315l-.008,1.655c1.906.4,1.263,1.869.008,2.852v3.251c1.906.414,1.234,1.884-.008,2.859v3.244c1.921.4,1.249,1.884-.007,2.859l-.03,3.236a2.636,2.636,0,0,1,.48.14,1.193,1.193,0,0,1,.724.739c.185.584-.251,1.271-1.175,1.988v3.244c1.921.4,1.256,1.877,0,2.86l.022,3.244c1.973.436,1.19,1.995-.022,2.919v2.335a.736.736,0,0,1-.739.739l-17.911-.015a.735.735,0,0,1-.739-.732v-2.4c-2.933-.31-1.633-2.209,0-3.259v-2.845c-2.786-.3-1.781-2.113,0-3.259l.008-2.845c-2.793-.3-1.8-2.113-.008-3.259v-2.845c-2.933-.31-1.626-2.209,0-3.258V1273.5c-2.933-.31-1.626-2.209,0-3.259V1262.9h-10.315a.741.741,0,0,1-.739-.739c-.3-9.975,9.391-15.768,18.272-16.581a.736.736,0,0,1,.8.665l.007,8.963h3.355v-8.9A.74.74,0,0,1,2213.433,1245.589Zm5.675,50.134-.015-2.948-.362.2a54.5,54.5,0,0,1-14.97,4.832c-.392.059-.769.1-1.116.118v1.655l11.283.007a28.31,28.31,0,0,0,6.281-3.081C2219.721,1296.446,2219.107,1296.409,2219.107,1295.722Zm-1.367,3.864h1.337v-.672C2218.679,1299.128,2218.228,1299.357,2217.74,1299.586Zm1.337-10v-2.9a51.663,51.663,0,0,1-15.317,5.025c-.392.059-.769.1-1.116.126v3.052a.857.857,0,0,1-.37.82c-2.424,1.456-.125.85,1.279.643a53.071,53.071,0,0,0,14.5-4.677C2221.893,1289.648,2219.078,1290.971,2219.078,1289.582Zm1.094-5.291a.744.744,0,0,1-.4.118.735.735,0,0,1-.724-.746l.022-3.081a51.881,51.881,0,0,1-15.31,5.017c-.392.059-.769.1-1.116.126v3.251a.74.74,0,0,1-.466.68,6.326,6.326,0,0,0-1.116.82c-.214.222,2.025-.163,2.49-.229,3.916-.562,13.588-3.421,16.684-5.941Zm-1.094-7.071v-2.749a51.656,51.656,0,0,1-15.317,5.024c-.392.059-.761.1-1.108.126v3.177a.826.826,0,0,1-.377.695,6.824,6.824,0,0,0-1.212.879,11.127,11.127,0,0,0,2.49-.229c3.872-.554,13.551-3.4,16.684-5.948C2219.706,1278.129,2219.078,1277.856,2219.078,1277.22Zm.015-5.83v-3.029a50.146,50.146,0,0,1-15.324,5.032c-.4.059-.768.1-1.116.126v3.081a.873.873,0,0,1-.377.791,6.444,6.444,0,0,0-1.212.887,14.33,14.33,0,0,0,2.49-.236c3.849-.554,13.581-3.406,16.684-5.941C2219.832,1272.048,2219.093,1272.255,2219.093,1271.39Zm0-6.118V1262.9h-16.44v7.551c0,.975-1,1.123-1.589,1.722-.214.214,1.98-.17,2.49-.237,3.931-.561,13.536-3.362,16.684-5.94C2219.795,1265.938,2219.093,1266.093,2219.093,1265.272Zm-5.062-18.14v8.815a.743.743,0,0,1-.739.746h-4.84a.738.738,0,0,1-.739-.746v-8.815c-7.426.924-16.093,5.918-16.137,14.29h38.585C2230.117,1253,2221.368,1248.042,2214.031,1247.133Z" transform="translate(-2190.107 -1245.578)"/></g></g></g></svg>