<svg xmlns="http://www.w3.org/2000/svg" width="40.398" height="32.874" viewBox="0 0 40.398 32.874"><defs><style>.a{fill:#2d4d76;}</style></defs><path class="a" d="M41.812,8.4a16.756,16.756,0,0,1-4.76,1.31A8.317,8.317,0,0,0,40.7,5.116a16.469,16.469,0,0,1-5.265,2.012A8.286,8.286,0,0,0,21.094,12.8a8.114,8.114,0,0,0,.214,1.892A23.488,23.488,0,0,1,4.221,6.015,8.3,8.3,0,0,0,6.8,17.093a8.1,8.1,0,0,1-3.767-1.036v.1a8.3,8.3,0,0,0,6.652,8.133,8.343,8.343,0,0,1-2.183.291,7.819,7.819,0,0,1-1.558-.154,8.3,8.3,0,0,0,7.747,5.761,16.617,16.617,0,0,1-10.3,3.553,16.8,16.8,0,0,1-1.978-.12A23.167,23.167,0,0,0,14.1,37.373c15.264,0,23.6-12.644,23.6-23.611,0-.36-.009-.719-.026-1.07A16.872,16.872,0,0,0,41.812,8.4Z" transform="translate(-1.413 -4.5)"/></svg>